<?xml version="1.0" encoding="utf-8"?>
<!-- Generator: Adobe Illustrator 26.1.0, SVG Export Plug-In . SVG Version: 6.00 Build 0)  -->
<svg version="1.1" id="Layer_1" xmlns="http://www.w3.org/2000/svg" xmlns:xlink="http://www.w3.org/1999/xlink" x="0px" y="0px"
	 viewBox="0 0 96 96" style="enable-background:new 0 0 96 96;" xml:space="preserve">
<style type="text/css">
	.st0{fill:#FFFFFF;}
</style>
<path class="st0" d="M78.7,92c-0.7,0-1.3-0.6-1.3-1.3v-63c0-0.7,0.6-1.3,1.3-1.3h12c0.7,0,1.3,0.6,1.3,1.3v63c0,0.7-0.6,1.3-1.3,1.3
	H78.7z M80,89.3h9.3V29H80V89.3z M29.8,92c-0.7,0-1.3-0.6-1.3-1.3V42.3c0-0.7,0.6-1.3,1.3-1.3h12c0.7,0,1.3,0.6,1.3,1.3v48.3
	c0,0.7-0.6,1.3-1.3,1.3H29.8z M31.1,89.3h9.3V43.7h-9.3V89.3z M54.2,92c-0.7,0-1.3-0.6-1.3-1.3V49.3c0-0.7,0.6-1.3,1.3-1.3h12
	c0.7,0,1.3,0.6,1.3,1.3v41.4c0,0.7-0.6,1.3-1.3,1.3H54.2z M55.6,89.3h9.3l0-38.7h-9.3V89.3z M5.4,92C4.6,92,4,91.4,4,90.6V64.3
	C4,63.6,4.6,63,5.4,63h12c0.4,0,0.7,0.1,0.9,0.4c0.3,0.3,0.4,0.6,0.4,0.9v26.3c0,0.7-0.6,1.3-1.3,1.3H5.4z M6.7,89.3H16V65.7H6.7
	V89.3z M11.3,56.7c-4,0-7.3-3.3-7.3-7.3c0-4,3.3-7.3,7.3-7.3c1.2,0,2.3,0.3,3.3,0.8l1,0.5l14.1-13.8l-0.5-1c-0.5-1-0.7-2.1-0.7-3.2
	c0-4,3.3-7.3,7.3-7.3s7.3,3.3,7.3,7.3l0,1.2l1,0.4l9.8,3.6l0.7-0.8c1.4-1.7,3.5-2.7,5.7-2.7c1.2,0,2.4,0.3,3.5,0.9l0.9,0.5
	l13.9-12.9l-0.5-1c-0.5-1-0.7-2-0.7-3.1c0-4,3.3-7.3,7.3-7.3S92,7.3,92,11.3s-3.3,7.3-7.3,7.3c-1.2,0-2.3-0.3-3.4-0.8l-0.9-0.5
	L66.5,30.3l0.4,1c0.4,0.9,0.6,2,0.6,3c0,4-3.3,7.3-7.3,7.3s-7.3-3.3-7.3-7.3l0-1.2l-10.8-4l-0.7,0.8c-1.4,1.7-3.5,2.7-5.7,2.7
	c-1.2,0-2.3-0.3-3.3-0.8l-1-0.5L17.5,45.2l0.5,1c0.5,1,0.7,2.1,0.7,3.2C18.7,53.4,15.4,56.7,11.3,56.7z M11.3,44.7
	c-2.6,0-4.6,2.1-4.6,4.6S8.8,54,11.3,54c2.6,0,4.6-2.1,4.6-4.6S13.9,44.7,11.3,44.7z M60.2,29.6c-2.6,0-4.6,2.1-4.6,4.6
	c0,2.6,2.1,4.6,4.6,4.6c2.6,0,4.6-2.1,4.6-4.6C64.9,31.7,62.8,29.6,60.2,29.6z M35.8,20.7c-2.6,0-4.6,2.1-4.6,4.6
	c0,2.6,2.1,4.6,4.6,4.6c2.6,0,4.6-2.1,4.6-4.6C40.4,22.7,38.3,20.7,35.8,20.7z M84.7,6.7c-2.6,0-4.6,2.1-4.6,4.6
	c0,2.6,2.1,4.6,4.6,4.6s4.6-2.1,4.6-4.6C89.3,8.8,87.2,6.7,84.7,6.7z"/>
</svg>
