<?xml version="1.0" encoding="utf-8"?>
<svg viewBox="0 0 150 150" xmlns="http://www.w3.org/2000/svg">
  <path class="icon" d="M 41.371 83.455 C 40.582 83.455 39.969 82.842 39.881 82.053 C 39.355 74.518 35.237 63.915 27.614 63.915 C 21.305 63.915 16.573 68.297 13.507 76.971 C 13.244 77.76 12.368 78.198 11.579 77.847 C 10.79 77.584 10.352 76.708 10.703 76.007 C 14.208 66.018 19.903 60.936 27.614 60.936 C 37.69 60.936 42.334 73.729 42.86 81.878 C 42.948 82.667 42.334 83.455 41.458 83.455 L 41.371 83.455 Z" fill="#1d2d35" style=""/>
  <path class="icon" d="M 27.263 88.975 C 22.181 88.975 17.274 86.785 13.857 82.929 C 13.419 82.579 13.331 81.966 13.507 81.44 C 14.471 78.899 17.012 73.028 20.254 72.94 C 21.918 72.94 23.145 74.255 24.109 75.306 C 24.372 75.657 24.81 76.095 25.16 76.358 C 25.949 75.569 27.439 73.116 28.578 70.575 C 28.928 69.786 29.804 69.523 30.593 69.874 C 31.382 70.224 31.644 71.1 31.294 71.889 C 27.789 79.512 25.949 79.512 25.248 79.512 C 23.846 79.512 22.882 78.461 21.918 77.409 C 21.48 76.971 20.604 76.007 20.254 76.007 C 19.465 76.095 17.8 78.811 16.661 81.703 C 19.553 84.594 23.496 86.171 27.526 86.084 C 31.031 86.084 37.252 85.47 39.793 81.703 C 39.092 74.167 34.974 64.003 27.526 64.003 C 26.738 64.003 26.037 63.302 26.037 62.513 C 26.037 61.725 26.738 60.936 27.614 60.936 C 37.69 60.936 42.334 73.729 42.86 81.878 C 42.86 82.141 42.773 82.491 42.685 82.754 C 40.319 86.785 34.974 89.063 27.614 89.063 C 27.526 88.975 27.351 88.975 27.263 88.975 Z" fill="#1d2d35" style=""/>
  <g class="name" fill="#1d2d35" style="" transform="matrix(0.876223, 0, 0, 0.876223, 8.161344, 60.93623)">
    <path d="m46.8 8.5h6.1c3.4 0 5.2 1.4 5.2 4v.1c.1 1.6-1 3-2.5 3.3 1.9.2 3.2 1.8 3.1 3.7v.1c0 2.9-1.9 4.4-5.5 4.4h-6.4zm5.5 6.4c1.7 0 2.4-.6 2.4-2v-.1c0-1.3-.7-1.9-2.4-1.9h-2.1v4zm.4 6.7c1.7 0 2.5-.8 2.5-2.2v-.1c0-1.4-.8-2.2-2.7-2.2h-2.2v4.5z"/>
    <path d="m59.6 20.9c0-2.6 2.4-3.6 5.9-3.6h1.3v-.5c0-1.4-.4-2.1-1.8-2.1-.9-.1-1.8.5-1.9 1.5v.1h-3c.2-2.7 2.3-3.9 5.1-3.9s4.8 1.1 4.8 4.2v7.4h-3.1v-1.3c-.8 1.1-2.1 1.7-3.4 1.6-2.2 0-3.9-1-3.9-3.4zm7.2-.8v-1h-1.2c-1.8 0-2.9.4-2.9 1.6 0 .8.5 1.4 1.7 1.4 1.3 0 2.4-.8 2.4-2z"/>
    <path d="m71.2 20.5h2.9c.1 1 .6 1.6 2 1.6s1.8-.5 1.8-1.2-.7-1.1-2.3-1.4c-3-.5-4.2-1.3-4.2-3.6s2.1-3.5 4.5-3.5c2.5 0 4.4.9 4.7 3.5h-2.9c-.2-.9-.7-1.4-1.8-1.4s-1.6.5-1.6 1.2.5 1 2.2 1.2c2.8.4 4.4 1.1 4.4 3.6s-1.8 3.8-4.8 3.8-4.8-1.4-4.9-3.8z"/>
    <path d="m81.8 18.5v-.2c-.2-3.1 2.2-5.8 5.4-5.9h.5c2.9 0 5.6 1.7 5.6 5.8v.9h-8.3c.1 1.9 1.1 3 2.8 3 1.5 0 2.2-.6 2.4-1.6h3c-.4 2.5-2.3 3.8-5.4 3.8-3.5 0-6-2.2-6-5.8zm8.3-1.4c-.1-1.7-1-2.6-2.5-2.6-1.4 0-2.6 1.1-2.6 2.6z"/>
    <path d="m94 18.5v-.2c-.1-3.1 2.3-5.8 5.4-5.9h.5c2.6 0 5.1 1.1 5.3 4.4h-3c-.1-1.1-1.1-2-2.2-1.9-1.6 0-2.7 1.2-2.7 3.4v.2c0 2.3 1 3.5 2.8 3.5 1.3.1 2.4-.9 2.4-2.2h2.8c-.2 2.7-2.1 4.6-5.4 4.6s-5.9-2.2-5.9-5.9z"/>
    <path d="m106.1 20.9c0-2.6 2.4-3.6 5.9-3.6h1.3v-.5c0-1.4-.4-2.1-1.8-2.1-.9-.1-1.8.5-1.9 1.5v.2h-3c.2-2.7 2.3-3.9 5.1-3.9s4.8 1.1 4.8 4.2v7.3h-3.1v-1.3c-.8 1.1-2.1 1.7-3.4 1.6-2.2 0-3.9-1-3.9-3.4zm7.1-.8v-1h-1.2c-1.8 0-2.9.4-2.9 1.6 0 .8.5 1.4 1.7 1.4 1.4 0 2.4-.8 2.4-2z"/>
    <path d="m118.5 12.7h3.2v1.7c.7-1.3 2-2 3.5-2 1.4-.1 2.7.7 3.2 2 .9-1.3 2.3-2 3.8-2 2.1 0 3.8 1.3 3.8 4.4v7.2h-3.1v-6.9c0-1.5-.6-2.1-1.8-2.1-1.2-.1-2.2.9-2.2 2v.3 6.7h-3.1v-6.9c0-1.5-.7-2.1-1.8-2.1-1.2-.1-2.1.9-2.2 2v.3 6.7h-3.2z"/>
    <path d="m138.1 12.7h3.1v1.8c.8-1.3 2.2-2 3.6-2 2.8 0 5 2.1 5 5.8v.2c0 3.8-2.1 5.9-5 5.9-1.5.1-2.9-.7-3.6-2v5.6h-3.1zm8.5 5.7v-.2c0-2.3-1.1-3.4-2.7-3.4s-2.8 1.1-2.8 3.4v.2c0 2.3 1.1 3.4 2.8 3.4s2.7-1.2 2.7-3.4z"/>
  </g>
</svg>