<svg xmlns="http://www.w3.org/2000/svg" xmlns:xlink="http://www.w3.org/1999/xlink" version="1.1" x="0px" y="0px"
     viewBox="0 0 52 52" style="enable-background:new 0 0 52 52;" xml:space="preserve"><g><g>
        <style type="text/css">
	.st0{fill:#fff;}
</style>
    <path class="st0" d="M23.0224857,8.9716797c-0.5522461,0-1-0.4477539-1-1l-0.0004883-5c0-0.5522461,0.4477539-1,1-1s1,0.4477539,1,1    l0.0004883,5C24.0224857,8.5239258,23.5747318,8.9716797,23.0224857,8.9716797z"></path></g><g>
    <path class="st0" d="M23.0224857,18.9716797c-3.3085938,0-6-2.6914063-6-6s2.6914063-6,6-6s6,2.6914063,6,6    S26.3310795,18.9716797,23.0224857,18.9716797z M23.0224857,8.9716797c-2.2055664,0-4,1.7944336-4,4s1.7944336,4,4,4    s4-1.7944336,4-4S25.2280521,8.9716797,23.0224857,8.9716797z"></path></g><g>
    <path class="st0" d="M13.1767836,45.4707031c-0.1010742,0-0.2026367-0.0151367-0.3007813-0.0463867    c-0.2529297-0.0795898-0.4638672-0.2568359-0.5864258-0.4921875l-1.3100586-2.5097656    c-0.1220703-0.234375-0.1459961-0.5078125-0.0673828-0.7602539l7.749999-24.8095703    c0.1645508-0.5273438,0.7231445-0.8203125,1.2514648-0.6567383l3.5400391,1.0996094    c0.4179688,0.1298828,0.703125,0.5166016,0.703125,0.9545898c0,0.1694336-0.0424805,0.3310547-0.1186523,0.4731445    l0.0712891,0.2236328c0.0625,0.1958008,0.0629883,0.4057617,0.0019531,0.6015625l-7.4697266,23.9106445    c-0.0795898,0.2539063-0.2568359,0.4658203-0.4926758,0.5888672l-2.510253,1.3100586    C13.4946547,45.4326172,13.3359632,45.4707031,13.1767836,45.4707031z M12.9443617,41.8642578l0.65625,1.2573242    l1.2558594-0.6552734L22.107935,19.253418l-0.0996094-0.3125l-1.7348633-0.5390625L12.9443617,41.8642578z"></path></g><g>
    <path class="st0" d="M33.1269798,45.4707031c-0.1591797,0-0.3178711-0.0380859-0.4619141-0.112793L30.15481,44.0478516    c-0.2358398-0.1230469-0.4135742-0.3349609-0.4926758-0.5893555l-7.4599609-23.9101563    c-0.0600586-0.1928711-0.0605469-0.3994141-0.0009766-0.5922852l0.0727539-0.2358398    c-0.0761719-0.1430664-0.1181641-0.3051758-0.1171875-0.4746094c0.0019531-0.4360352,0.2866211-0.8203125,0.7026367-0.949707    l3.5302734-1.0996094c0.5249023-0.1635742,1.0869141,0.1289063,1.2519531,0.65625l7.7500019,24.8095703    c0.0786133,0.2524414,0.0546875,0.5258789-0.0673828,0.7602539l-1.3100586,2.5097656    c-0.1225586,0.2353516-0.3334961,0.4125977-0.5864258,0.4921875    C33.3296165,45.4555664,33.228054,45.4707031,33.1269798,45.4707031z M31.4477787,42.4663086l1.255373,0.6552734    l0.65625-1.2573242L26.0302982,18.402832l-1.7324219,0.5395508l-0.0942383,0.3061523L31.4477787,42.4663086z"></path></g><g>
    <path class="st0" d="M11.4731703,50.0283203c-0.1137695,0-0.2290039-0.0195313-0.3417969-0.0605469    c-0.519043-0.1889648-0.7866211-0.7626953-0.5981445-1.2817383l1.8388672-5.0561523    c0.1894531-0.519043,0.7651367-0.7851563,1.2817383-0.5981445c0.519043,0.1889648,0.7866211,0.7626953,0.5981445,1.2817383    l-1.8388672,5.0561523C12.2651625,49.7758789,11.8818617,50.0283203,11.4731703,50.0283203z"></path></g><g>
    <path class="st0" d="M35.0229759,49.972168c-0.390625,0-0.7612305-0.2299805-0.9223633-0.6123047l-1.8950195-4.5019531    c-0.2138691-0.5092773,0.0249023-1.0957031,0.5336914-1.3100586c0.5087891-0.2138672,1.0952148,0.0244141,1.3100586,0.5336914    l1.8950195,4.5019531c0.2138672,0.5092773-0.0249023,1.0957031-0.5336914,1.3100586    C35.2837181,49.9467773,35.1523705,49.972168,35.0229759,49.972168z"></path></g><g>
    <path class="st0" d="M23.0200443,32.9824219c-1.3110352,0-2.6206055-0.1303711-3.9199219-0.3911133    c-0.5415039-0.1088867-0.8925781-0.6357422-0.7836914-1.1772461c0.1083984-0.5419922,0.6362305-0.8920898,1.1772461-0.7836914    c2.4135742,0.4848633,4.8686523,0.4682617,7.2949219-0.0478516c0.5405273-0.1191406,1.0708008,0.2294922,1.1865234,0.7695313    c0.1152344,0.5405273-0.2294922,1.0717773-0.7695313,1.1865234C25.8154545,32.8344727,24.417017,32.9824219,23.0200443,32.9824219    z"></path></g><g>
    <path class="st0" d="M30.7973881,31.3110352c-0.3823242,0-0.7475586-0.2207031-0.9135742-0.5927734    c-0.2250977-0.5039063,0.0009766-1.0957031,0.5053711-1.3208008c4.1694355-1.8623047,7.4423847-5.2094727,9.2158222-9.4243164    c0.2143555-0.5087891,0.8012695-0.7470703,1.3095703-0.5341797c0.5092773,0.2143555,0.7480469,0.8007813,0.5341797,1.3095703    c-1.9716797,4.6845703-5.609375,8.4047852-10.2441425,10.4750977    C31.0722904,31.2827148,30.9336185,31.3110352,30.7973881,31.3110352z"></path></g></g></svg>
