<?xml version="1.0" encoding="utf-8"?>
<svg version="1.1" id="layer" x="0px" y="0px" viewBox="0 0 652 652" style="enable-background:new 0 0 652 652;" xmlns="http://www.w3.org/2000/svg">
  <style type="text/css">
	.st0{fill:#111324;}
	.st1{fill:#7856FF;}
</style>
  <g style="" transform="matrix(1.086638, 0, 0, 1.086638, -21.732574, -23.843077)">
    <path class="st0" d="M315.6,292.2c-2.4,0-4.2,0.5-4.2,2.7v2.2c0,2.2,1.8,2.8,4.2,2.8c2.4,0,4.2-0.6,4.2-2.8v-2.2 C319.9,292.7,318,292.2,315.6,292.2 M317.3,304.2H314c-1.1,0-2,0.9-2,2v29c0,1.1,0.9,2,2,2h3.4c1.1,0,2-0.9,2-2v-29 C319.4,305.1,318.5,304.2,317.3,304.2 M218.9,303.9c-4.9,0-8.3,2.1-10.9,5.6c-1.7-3.4-5-5.6-9.7-5.6c-5,0-7.8,2.7-9.9,5.6v-3.2 c0-1.1-0.9-2-2-2c0,0,0,0,0,0H183c-1.1,0-2,0.9-2,2v29c0,1.1,0.9,2,2,2h3.4c1.1,0,2-0.9,2-2c0,0,0,0,0,0v-16.6c0-5,2.8-8,6.9-8 c4.1,0,6.6,2.8,6.6,7.9v16.7c0,1.1,0.9,2,2,2h3.4c1.1,0,2-0.9,2-2c0,0,0,0,0,0v-16.6c0-5.2,2.9-8,6.9-8c4.2,0,6.6,2.8,6.6,7.9 l0,16.7c0,1.1,0.9,2,2,2h3.4c1.1,0,2-0.9,2-2v-19C230.2,308.3,225.9,303.9,218.9,303.9 M531.9,292.2c-2.4,0-4.2,0.5-4.2,2.7v2.2 c0,2.2,1.8,2.8,4.2,2.8c2.4,0,4.2-0.6,4.2-2.8v-2.2C536.1,292.7,534.3,292.2,531.9,292.2 M533.6,304.2h-3.4c-1.1,0-2,0.9-2,2v29 c0,1.1,0.9,2,2,2h3.4c1.1,0,2-0.9,2-2v-29C535.6,305.1,534.7,304.2,533.6,304.2 M125,300.8c3.2,0,6.3,1,8.8,3 c0.8,0.6,1.9,0.5,2.6-0.2l2.6-2.6c0.8-0.8,0.8-2,0-2.8c-0.1-0.1-0.1-0.1-0.2-0.1c-3.9-3.1-8.8-4.9-13.8-4.8 c-12.2,0-22.2,9.9-22.2,22.2c0,12.2,9.9,22.2,22.2,22.2c5,0,9.9-1.7,13.8-4.8c0.8-0.7,1-1.9,0.3-2.7c0-0.1-0.1-0.1-0.2-0.2 l-2.6-2.6c-0.7-0.7-1.8-0.8-2.6-0.2c-2.5,1.9-5.6,3-8.8,3c-8.1,0-14.6-6.6-14.6-14.6C110.3,307.4,116.9,300.8,125,300.8 M348.4,320.8c0,6.2-4.3,10.4-9.1,10.4c-4.9,0-8.8-4-8.8-10.4v-0.1c0-6.3,3.9-10.4,8.8-10.4s9.1,4.2,9.1,10.4V320.8z M354.4,304.2 h-3.4c-1.1,0-2,0.9-2,2c0,0,0,0,0,0v3.3c-2.4-3.4-5.8-5.6-11-5.6c-7.6,0-15,6-15,16.8v0.1c0,10.7,7.4,16.8,15,16.8 c5.4,0,8.8-2.5,11-5.5l0.1-0.1v3c0,5.6-4.3,10.7-10.3,10.7c-3.7,0-7.1-1.7-8.8-4.6c-0.6-1-1.8-1.3-2.8-0.7l-1.4,0.9 c-1,0.6-1.3,1.8-0.7,2.8c2.8,4.6,7.7,7.6,14,7.6c10.7,0,17.4-7.7,17.4-16.9v-28.7C356.5,305.1,355.6,304.2,354.4,304.2z M511.5,303.9c-5,0-8,2.6-10.1,5.6v-3.2c0-1.1-0.9-2-2-2H496c-1.1,0-2,0.9-2,2v29c0,1.1,0.9,2,2,2h3.4c1.1,0,2-0.9,2-2.3v-17.4 c-0.1-3.9,3.1-7.2,7-7.2c3.9-0.1,7.2,3.1,7.2,7c0,0.1,0,0.2,0,0.3v17.8c0,1.1,0.9,2,2,2h3.4c1.1,0,2-0.9,2-2v-18.9 C523,308.8,518.8,303.9,511.5,303.9 M379.2,303.9c-5,0-8,2.6-10.1,5.6v-3.2c0-1.1-0.9-2-2-2h-3.4c-1.1,0-2,0.9-2,2v29 c0,1.1,0.9,2,2,2h3.4c1.1,0,2-0.9,2-2.3v-17.4c0-3.9,3.2-7.1,7.1-7.1s7.1,3.2,7.1,7.1v17.8c0,1.1,0.9,2,2,2h3.4c1.1,0,2-0.9,2-2 v-18.9C390.7,308.8,386.5,303.9,379.2,303.9 M619.2,304.3c-0.1,0-0.1-0.1-0.2-0.1c-0.8-0.2-1.6-0.3-2.4-0.3c-3.7,0-7.2,2.1-8.8,5.5 v-3.2c0-1.1-0.9-2-2-2l0,0h-3.4c-1.1,0-2,0.9-2,2v29c0,1.1,0.9,2,2,2h3.4c1.1,0,2-0.9,2-2v-12.3c0-9.9,5.2-11.7,8.2-11.4 c0.6,0,1.1,0.1,1.5,0.2c0.1,0,0.2,0,0.4,0c0.7,0,1.3-0.5,1.4-1.1l0.7-4.8C620.1,305.2,619.7,304.5,619.2,304.3 M482.7,320.8v0.1 c0,5.7-3.9,10.2-9.7,10.3c-5.8-0.1-9.7-4.6-9.7-10.3v-0.2c0-5.7,3.9-10.2,9.7-10.3c5.8,0.1,9.7,4.6,9.7,10.3 C482.7,320.7,482.7,320.8,482.7,320.8z M473,303.9c-9.9,0-17.2,7.5-17.2,16.8v0.2c0,9.3,7.3,16.8,17.2,16.8s17.2-7.5,17.2-16.8 v-0.2C490.2,311.4,482.9,303.9,473,303.9z M589,320.8v0.1c0,5.7-3.9,10.2-9.7,10.3c-5.8-0.1-9.7-4.6-9.7-10.3v-0.2 c0-5.7,3.9-10.2,9.7-10.3c5.8,0.1,9.7,4.6,9.7,10.3C589,320.7,589,320.8,589,320.8z M579.3,303.9c-9.9,0-17.2,7.5-17.2,16.8v0.2 c0,9.3,7.3,16.8,17.2,16.8c9.9,0,17.2-7.5,17.2-16.8v-0.2C596.5,311.4,589.2,303.9,579.3,303.9z M449.9,293.7h-3.4 c-0.6,0-1.2,0.3-1.6,0.8l-13.9,19l-13.9-19c-0.4-0.5-1-0.8-1.6-0.8H412c-1.1,0-2,0.9-2,2v39.4c0,1.1,0.9,2,2,2h3.4c1.1,0,2-0.9,2-2 v-27.3l12.3,15.8l0,0l0.1,0.1h0c0.5,0.6,1.5,0.7,2.1,0.1c0,0,0.1-0.1,0.1-0.1h0l0.1-0.1l0,0l12.3-15.8v27.3c0,1.1,0.9,2,2,2h3.4 c1.1,0,2-0.9,2-2v-39.4C451.9,294.7,451,293.7,449.9,293.7 M431,324.3L431,324.3L431,324.3L431,324.3 M261.4,320.8 c0,6.2-4.3,10.4-9.1,10.4c-4.9,0-8.8-4-8.8-10.4v-0.1c0-6.3,3.9-10.4,8.8-10.4c4.8,0,9.1,4.2,9.1,10.4V320.8z M253.9,303.9 c-5.3,0-8.6,2.2-11,5.6v-3.2c0-1.1-0.9-2-2-2c0,0,0,0,0,0h-3.4c-1.1,0-2,0.9-2,2c0,0,0,0,0,0v42.5c0,1.1,0.9,2,2,2l0,0h3.4 c1.1,0,2-0.9,2-2l0,0v-16.7c2.3,3,5.6,5.6,11,5.6c7.7,0,15-6.1,15-16.8v-0.1C268.9,309.9,261.5,303.9,253.9,303.9z M166.5,320.8 c0,6.2-4.3,10.4-9.1,10.4c-4.9,0-8.8-4-8.8-10.4v-0.1c0-6.3,3.9-10.4,8.8-10.4c4.8,0,9.1,4.2,9.1,10.4V320.8z M176.1,332 c-0.8,0-1.4-0.6-1.4-1.4v-24.3c0-1.1-0.9-2-2-2h-3.4c-1.1,0-2,0.9-2,2v3.2c-2.4-3.4-5.8-5.6-11-5.6c-7.6,0-15,6-15,16.8v0.1 c0,10.7,7.4,16.8,15,16.8c5.6,0,9.5-2.5,11.2-5.6c0.9,3.1,3.7,5.2,6.8,5.2h1.9c0.8,0,1.4-0.6,1.4-1.4c0,0,0,0,0,0v-2.4 C177.5,332.6,176.9,332,176.1,332C176.1,332,176.1,332,176.1,332z M297.5,320.8c0,6.2-4.3,10.4-9.1,10.4c-4.9,0-8.8-4-8.8-10.4 v-0.1c0-6.3,3.9-10.4,8.8-10.4s9.1,4.2,9.1,10.4V320.8z M307,332c-0.8,0-1.4-0.6-1.4-1.4c0,0,0,0,0,0v-24.3c0-1.1-0.9-2-2-2h-3.4 c-1.1,0-2,0.9-2,2v3.2c-2.4-3.4-5.8-5.6-11-5.6c-7.6,0-15,6-15,16.8v0.1c0,10.7,7.4,16.8,15,16.8c5.6,0,9.5-2.5,11.2-5.6 c0.9,3.1,3.7,5.2,6.8,5.2h1.9c0.8,0,1.4-0.6,1.4-1.4c0,0,0,0,0,0v-2.4C308.4,332.6,307.8,332,307,332C307,332,307,332,307,332z M558.4,304.2h-7v-9c0-0.8-0.6-1.4-1.4-1.4c-0.3,0-0.6,0.1-0.8,0.3l-3.5,2.5c-1,0.7-1.6,1.9-1.6,3.1v4.6h-2.4c-1.1,0-2,0.9-2,2v2.1 c0,1.1,0.9,2,2,2h2.4v17.8c0,7.1,3.9,9.5,9.3,9.5c2.9,0,5.9-1.1,5.9-1.1s1-0.3,0.8-1.5c-0.1-0.4-0.6-3.2-0.6-3.2 c-0.1-0.7-0.4-1.2-1.4-1.1c-0.5,0.1-1.4,0.2-2.6,0.2c-2.5,0-4-1.2-4-4v-16.6h7c1.1,0,2-0.9,2-2c0,0,0,0,0,0v-2.1 C560.4,305.1,559.5,304.2,558.4,304.2"/>
    <path class="st1" d="M79.3,297.7c-0.7-1-2.1-1.3-3.2-0.6c0,0,0,0,0,0l-55.7,39c0.4,0.6,1.1,1,1.9,1l0,0h55.1c1.3,0,2.3-1,2.3-2.3 V299C79.7,298.5,79.5,298.1,79.3,297.7 M23.6,297.2c-1-0.7-2.4-0.5-3.2,0.6c-0.3,0.4-0.4,0.8-0.4,1.3v35.9l26.5-21.7L23.6,297.2"/>
  </g>
</svg>