<?xml version="1.0" encoding="utf-8"?>
<!-- Generator: Adobe Illustrator 26.1.0, SVG Export Plug-In . SVG Version: 6.00 Build 0)  -->
<svg version="1.1" id="Layer_1" xmlns="http://www.w3.org/2000/svg" xmlns:xlink="http://www.w3.org/1999/xlink" x="0px" y="0px"
	 viewBox="0 0 100 100" style="enable-background:new 0 0 100 100;" xml:space="preserve">
<style type="text/css">
	.st0{fill:#FFFFFF;}
</style>
<path class="st0" d="M75,95.5c-0.4,0-0.8-0.2-1.1-0.4L47.8,69l-17,17c-0.2,0.2-0.4,0.3-0.6,0.4l-16.7,6.2c-0.9,0.3-1.8,0.5-2.6,0.5
	c-1.5,0-2.4-0.6-2.8-1.1c-0.7-0.7-1.7-2.3-0.6-5.5l6.2-16.7c0.1-0.2,0.2-0.4,0.3-0.5l17-17L4.9,26.1c-0.6-0.6-0.6-1.5,0-2.1l19-19
	c0.3-0.3,0.7-0.4,1.1-0.4c0.4,0,0.8,0.2,1.1,0.4L52.2,31L71,12.2c0.2-0.2,0.5-0.4,0.9-0.4l0.4,0l0-0.4c0-0.3,0.1-0.6,0.4-0.9
	C75,8.2,78,7,81.2,7c3.2,0,6.2,1.2,8.4,3.5c2.2,2.2,3.5,5.2,3.5,8.4c0,3.2-1.2,6.2-3.5,8.4c-0.3,0.3-0.7,0.4-0.9,0.4l-0.4,0l0,0.4
	c0,0.4-0.2,0.7-0.4,0.9L69,47.8l26.1,26.1c0.3,0.3,0.4,0.7,0.4,1.1c0,0.4-0.2,0.8-0.4,1.1l-19,19C75.8,95.4,75.4,95.5,75,95.5z
	 M71.4,75.9c0.4,0,0.8,0.2,1.1,0.4c0.6,0.6,0.6,1.5,0,2.1L67,83.9l8,8L91.9,75l-25-25L49.9,66.9l5.2,5.2l5.5-5.5
	c0.3-0.3,0.7-0.4,1.1-0.4c0.4,0,0.8,0.2,1.1,0.4c0.6,0.6,0.6,1.5,0,2.1l-5.5,5.5l7.6,7.6l5.5-5.5C70.7,76,71,75.9,71.4,75.9z
	 M53.3,34.2L53.3,34.2l-0.1,0.1L34.3,53.2l-0.1,0.1L16.3,71.1l-6.1,16.4c-0.4,1.2-0.4,2-0.2,2.2l0.1,0.1l0.1,0.1
	c0.2,0.1,0.4,0.1,0.6,0.1c0.3,0,0.8-0.1,1.6-0.3L27,84.4L20.7,78c-0.6-0.6-0.6-1.5,0-2.1c0.3-0.3,0.7-0.4,1.1-0.4
	c0.4,0,0.8,0.2,1.1,0.4l6.9,6.9l17-17l0-0.1L84.6,28L72.1,15.4L53.3,34.2z M32.4,36.8c0.4,0,0.8,0.2,1.1,0.4
	c0.3,0.3,0.4,0.7,0.4,1.1s-0.2,0.8-0.4,1.1L28,44.9l5.2,5.2l16.9-16.9l-25-25L8.1,25l8,8l5.5-5.5c0.3-0.3,0.7-0.4,1.1-0.4
	s0.8,0.2,1.1,0.4c0.6,0.6,0.6,1.5,0,2.1l-5.5,5.5l7.6,7.6l5.5-5.5C31.6,37,32,36.8,32.4,36.8z M81.2,10c-2.4,0-4.6,0.9-6.3,2.6
	c-0.1,0.1-0.2,0.2-0.3,0.2L74,13.1L86.9,26l0.3-0.6c0.1-0.1,0.2-0.2,0.2-0.3c3.5-3.5,3.5-9.1,0-12.5C85.8,10.9,83.5,10,81.2,10z"/>
</svg>
