<?xml version="1.0" encoding="UTF-8"?>
<svg width="1200pt" height="1200pt" version="1.1" viewBox="0 0 1200 1200" xmlns="http://www.w3.org/2000/svg">
 <g fill="#fff">
  <path d="m1090.9 924.75-362.25-362.25c-59.32-61.602-93.32-143.25-95.25-228.75v-12-4.125-3.75c-3.1797-47.84-23.875-92.828-58.125-126.38-68.625-68.625-147.75-112.5-207-112.5-26.148-0.9375-51.523 8.9688-70.125 27.375-3.5508 3.5195-5.5469 8.3125-5.5469 13.312s1.9961 9.793 5.5469 13.312l112.5 112.5c6.5664 7.4102 9.9375 17.117 9.375 27-4.8203 38.281-23.66 73.422-52.875 98.625-25.633 28.82-61.039 47.125-99.375 51.375-9.8828 0.5625-19.59-2.8086-27-9.375l-112.5-112.5c-3.5195-3.5508-8.3125-5.5469-13.312-5.5469s-9.793 1.9961-13.312 5.5469c-18.422 18.996-28.074 44.824-26.625 71.25 0 59.25 42.375 138.75 112.5 207.38 34.078 34.535 79.805 55.125 128.25 57.75h18c85.551 2.0312 167.21 36.168 228.75 95.625 55.875 55.5 362.25 362.25 362.25 362.25 29.676 29.676 72.93 41.266 113.46 30.402 40.539-10.859 72.203-42.523 83.062-83.062 10.863-40.535-0.72656-83.789-30.402-113.46zm-757.12-329.25h-17.625c-39.164-2.0586-76.117-18.797-103.5-46.875-62.625-61.125-100.12-132-100.12-180.75-0.18359-9.6719 1.7344-19.27 5.625-28.125l96 95.625c14.488 13.582 33.773 20.867 53.625 20.25 48.266-4.0273 93.188-26.285 125.62-62.25 35.965-32.438 58.223-77.359 62.25-125.62 0.61719-19.852-6.668-39.137-20.25-53.625l-95.625-96c8.8555-3.8906 18.453-5.8086 28.125-5.625 49.125 0 120 37.5 180.38 99.75 28.109 27.09 44.98 63.777 47.25 102.75v5.25 13.125c-7.4922 66.66-39.102 128.28-88.875 173.25-44.898 49.664-106.36 81.262-172.88 88.875zm730.5 468.75c-14.961 14.84-35.18 23.164-56.25 23.164s-41.289-8.3242-56.25-23.164c0 0-306.38-306.75-362.25-362.25-45.059-44.59-101.06-76.535-162.38-92.625l4.5-2.25 15-7.875 11.25-6.375 15.375-10.125 10.5-7.125 16.875-13.125 8.25-6.75c8.25-7.125 16.5-14.625 24.375-22.5s15.375-16.125 22.5-24.375l7.125-9c4.125-5.25 8.625-10.5 12.375-16.125l8.25-12.375 8.625-13.125c3-4.875 5.625-9.75 8.25-15l5.625-10.5 3-6c16.09 61.316 48.035 117.32 92.625 162.38l362.25 362.25c15.004 14.926 23.469 35.195 23.539 56.359 0.070313 21.164-8.2617 41.488-23.164 56.516z"/>
  <path d="m1005.4 945.75c-14.918 0-29.227 5.9258-39.773 16.477-10.551 10.547-16.477 24.855-16.477 39.773s5.9258 29.227 16.477 39.773c10.547 10.551 24.855 16.477 39.773 16.477s29.227-5.9258 39.773-16.477c10.551-10.547 16.477-24.855 16.477-39.773s-5.9258-29.227-16.477-39.773c-10.547-10.551-24.855-16.477-39.773-16.477zm0 75c-4.9727 0-9.7422-1.9766-13.258-5.4922-3.5156-3.5156-5.4922-8.2852-5.4922-13.258s1.9766-9.7422 5.4922-13.258c3.5156-3.5156 8.2852-5.4922 13.258-5.4922s9.7422 1.9766 13.258 5.4922c3.5156 3.5156 5.4922 8.2852 5.4922 13.258s-1.9766 9.7422-5.4922 13.258c-3.5156 3.5156-8.2852 5.4922-13.258 5.4922z"/>
  <path d="m490.5 845.62-199.88 187.5c-44.25 42-81.75 37.5-133.88-18.375s-55.5-92.25-10.5-134.62l205.5-193.5c4.8906-4.6211 6.9414-11.504 5.3867-18.047-1.5586-6.5469-6.4922-11.766-12.938-13.688-6.4492-1.9258-13.434-0.26172-18.324 4.3594l-205.5 193.88c-88.875 84-15.375 162 9 187.5 25.746 32.473 63.43 53.273 104.62 57.75 31.223-1.293 60.699-14.754 82.125-37.5l199.88-187.5c4.8906-4.6211 6.9414-11.504 5.3867-18.047-1.5586-6.5469-6.4922-11.766-12.938-13.688-6.4492-1.9258-13.434-0.26172-18.324 4.3594z"/>
  <path d="m562.5 777.38-28.875 27.375c-4.8906 4.6211-6.9414 11.504-5.3867 18.047 1.5586 6.5469 6.4922 11.766 12.938 13.688 6.4492 1.9258 13.434 0.26172 18.324-4.3594l28.875-27.375c4.8906-4.6211 6.9414-11.504 5.3867-18.047-1.5586-6.5469-6.4922-11.766-12.938-13.688-6.4492-1.9258-13.434-0.26172-18.324 4.3594z"/>
  <path d="m672.75 415.12c4.5273 2.0273 9.6719 2.1836 14.312 0.42578 4.6367-1.7578 8.3906-5.2812 10.438-9.8008 7.6641-16.66 11.141-34.941 10.125-53.25l9.75-9 145.12 153.38-9.75 9c-35.047-3.4648-69.855 8.5938-95.25 33-4.8906 4.6211-6.9414 11.504-5.3867 18.047 1.5586 6.5469 6.4922 11.766 12.938 13.688 6.4492 1.9258 13.434 0.26172 18.324-4.3594 18.785-18.699 45.566-26.973 71.625-22.125 6.1406 1.5039 12.625-0.1875 17.25-4.5l30-28.125c3.5508-3.5195 5.5469-8.3125 5.5469-13.312s-1.9961-9.793-5.5469-13.312l-44.25-46.875 259.5-244.5c3.5508-3.5195 5.5469-8.3125 5.5469-13.312s-1.9961-9.793-5.5469-13.312l-56.625-60.375c-3.3984-3.6719-8.125-5.832-13.125-6-4.9883 0.058594-9.7812 1.9258-13.5 5.25l-259.12 244.5-43.5-46.125c-3.6953-2.9883-8.3867-4.4609-13.125-4.125-4.9688 0.15625-9.7305 2.0078-13.5 5.25l-30 28.5c-4.5938 4.3203-6.707 10.66-5.625 16.875 2.0859 14.285 0 28.871-6 42-1.375 4.2539-1.1875 8.8555 0.53125 12.98s4.8555 7.5 8.8438 9.5195zm375-268.88 31.125 33-64.125 58.875-31.125-33zm-91.5 84.75 31.125 33-155.62 146.62-31.125-33z"/>
 </g>
</svg>
