<?xml version="1.0" encoding="utf-8"?>
<!-- Generator: Adobe Illustrator 26.1.0, SVG Export Plug-In . SVG Version: 6.00 Build 0)  -->
<svg version="1.1" id="Layer_1" xmlns="http://www.w3.org/2000/svg" xmlns:xlink="http://www.w3.org/1999/xlink" x="0px" y="0px"
	 viewBox="0 0 1450.8 1450.8" style="enable-background:new 0 0 1450.8 1450.8;" xml:space="preserve">
<style type="text/css">
	.st0{fill:#FFFFFF;}
</style>
<g>
	<path class="st0" d="M1277.1,1115.4H968.2v-46.2h262.7V284.7H215.5v784.6h268.2v46.2H169.4V238.5h1107.7L1277.1,1115.4z"/>
	<path class="st0" d="M192.5,419.1H1254v46.2H192.5L192.5,419.1z"/>
	<path class="st0" d="M954.1,328.8h207.7V375H954.1L954.1,328.8z"/>
	<path class="st0" d="M284.8,328.8h92.3V375h-92.3L284.8,328.8z"/>
	<path class="st0" d="M515.6,328.8h92.3V375h-92.3V328.8z"/>
	<path class="st0" d="M721.1,1349.5l-11.1-6.1c-371.4-204.9-355.9-637.6-355.7-642l1.2-26.8l26.4,5.3
		c163.3,32.7,325.3-67.5,327-68.5l12.1-7.6l12.2,7.5c1.7,1,168.7,101.3,331.7,68.7l26.6-5.3l1,27.2c0.1,4.3,11.1,436.9-360.2,641.7
		L721.1,1349.5z M400.6,729.6c3.3,91.7,36.1,402.7,320.5,567c284.9-164.6,320.5-475,324.7-567c-146.1,18-283.4-49.5-324.6-72.1
		C680.7,680.3,546.2,747.7,400.6,729.6L400.6,729.6z"/>
	<path class="st0" d="M698,630.8h46.2v692.3H698V630.8z"/>
</g>
</svg>
