<?xml version="1.0" encoding="utf-8"?>
<!-- Generator: Adobe Illustrator 26.1.0, SVG Export Plug-In . SVG Version: 6.00 Build 0)  -->
<svg version="1.1" id="Layer_1" xmlns="http://www.w3.org/2000/svg" xmlns:xlink="http://www.w3.org/1999/xlink" x="0px" y="0px"
	 viewBox="0 0 1200 1200" style="enable-background:new 0 0 1200 1200;" xml:space="preserve">
<style type="text/css">
	.st0{fill:#FFFFFF;}
</style>
<g>
	<path class="st0" d="M286,1128.4c-7.8,0-14.3-5.9-15.1-13.6l-6.9-68.1l-10-4.9c-8.6-4.2-17-9-25-14.2l-9.1-6.1l-63.7,28.3
		c-2,0.9-4,1.3-6.1,1.3c-5.4,0-10.4-2.9-13.1-7.5L73.6,935.7c-4-6.8-2.2-15.5,4.3-20l56.5-40l-0.7-11.2c-0.3-4.6-0.5-9.2-0.5-13.8
		c0-4.5,0.2-9.2,0.5-13.8l0.7-11.2l-56.5-40c-6.5-4.6-8.3-13.2-4.3-20l63.2-107.9c2.7-4.6,7.7-7.5,13.1-7.5c2.1,0,4.2,0.4,6.1,1.3
		l63.7,28.3l9.1-6.1c8-5.3,16.4-10.1,25-14.2l10-4.9l6.9-68.1c0.8-7.8,7.3-13.6,15.1-13.6h126.5c7.8,0,14.3,5.9,15.1,13.6l6.9,68.1
		l10,4.9c8.6,4.2,17,9,25,14.2l9.1,6.1l63.7-28.3c2-0.9,4-1.3,6.1-1.3c5.4,0,10.4,2.9,13.1,7.5l63.2,107.9c4,6.8,2.2,15.5-4.3,20
		l-56.5,40l0.7,11.2c0.3,4.6,0.5,9.2,0.5,13.8c0,4.5-0.2,9.2-0.5,13.8l-0.7,11.2l56.5,40c6.5,4.6,8.3,13.2,4.3,20l-63.2,107.9
		c-2.7,4.6-7.7,7.5-13.1,7.5c-2.1,0-4.2-0.4-6.1-1.3l-63.7-28.3l-9.1,6.1c-8,5.3-16.4,10.1-25,14.2l-10,4.9l-6.9,68.1
		c-0.8,7.8-7.3,13.6-15.1,13.6H286z M222.2,988.7c3.4,0,6.8,1.2,9.5,3.3c15.6,12.5,33,22.4,51.7,29.4c5.4,2,9.2,6.9,9.8,12.7l6.5,64
		h99.1l6.5-64c0.6-5.8,4.3-10.6,9.8-12.7c18.7-7,36.1-16.9,51.7-29.4c2.7-2.2,6.1-3.4,9.5-3.4c2.1,0,4.2,0.4,6.1,1.3l59.9,26.6
		l49.4-84.2l-53-37.5c-4.7-3.3-7.1-9.1-6.2-14.8c1.6-9.7,2.4-19.6,2.4-29.3c0-9.8-0.8-19.6-2.4-29.3c-0.9-5.7,1.5-11.5,6.2-14.8
		l53-37.5l-49.4-84.2l-59.9,26.6c-1.9,0.9-4,1.3-6.2,1.3c-3.4,0-6.8-1.2-9.5-3.3c-15.6-12.5-33-22.4-51.7-29.4
		c-5.4-2-9.2-6.9-9.8-12.7l-6.5-64h-99.1l-6.5,64c-0.6,5.8-4.3,10.6-9.8,12.7c-18.7,7-36.1,16.9-51.7,29.4c-2.7,2.2-6.1,3.4-9.5,3.4
		c-2.1,0-4.2-0.4-6.1-1.3l-59.9-26.6l-49.4,84.2l53,37.5c4.7,3.3,7.1,9.1,6.2,14.8c-1.6,9.7-2.4,19.6-2.4,29.3s0.8,19.6,2.4,29.3
		c0.9,5.7-1.5,11.5-6.2,14.8l-53,37.5l49.4,84.2L216,990C218,989.1,220.1,988.7,222.2,988.7z"/>
	<path class="st0" d="M349.2,936.2c-47.1,0-85.5-38.3-85.5-85.5s38.3-85.5,85.5-85.5s85.5,38.3,85.5,85.5S396.3,936.2,349.2,936.2z
		 M349.2,795.6c-30.4,0-55.2,24.7-55.2,55.2s24.7,55.2,55.2,55.2s55.2-24.7,55.2-55.2S379.6,795.6,349.2,795.6z"/>
	<path class="st0" d="M787.5,626.9c-7.8,0-14.3-5.9-15.1-13.6l-6.9-68.1l-10-4.9c-8.6-4.2-17-9-25-14.2l-9.1-6.1l-63.7,28.3
		c-2,0.9-4,1.3-6.1,1.3c-5.4,0-10.4-2.9-13.1-7.5l-63.2-107.9c-4-6.8-2.2-15.5,4.3-20l56.5-40l-0.7-11.2c-0.3-4.6-0.5-9.2-0.5-13.8
		s0.2-9.2,0.5-13.8l0.7-11.2l-56.5-40c-6.5-4.6-8.3-13.2-4.3-20l63.2-107.9c2.7-4.6,7.7-7.5,13.1-7.5c2.1,0,4.2,0.4,6.1,1.3
		l63.7,28.3l9.1-6.1c7.9-5.3,16.3-10.1,25-14.2l10-4.9l6.9-68.1c0.8-7.8,7.3-13.6,15.1-13.6H914c7.8,0,14.3,5.9,15.1,13.6l6.9,68.1
		l10,4.9c8.6,4.2,17,9,25,14.2l9.1,6.1l63.7-28.3c2-0.9,4-1.3,6.1-1.3c5.4,0,10.4,2.9,13.1,7.5l63.2,107.9c4,6.8,2.2,15.5-4.3,20
		l-56.5,40l0.7,11.2c0.3,4.6,0.5,9.2,0.5,13.8s-0.2,9.2-0.5,13.8l-0.7,11.2l56.5,40c6.5,4.6,8.3,13.2,4.3,20l-63.2,107.9
		c-2.7,4.6-7.7,7.5-13.1,7.5c-2.1,0-4.2-0.4-6.1-1.3L980.2,520L971,526c-7.9,5.3-16.3,10.1-25,14.2l-10,4.9l-6.9,68.1
		c-0.8,7.8-7.3,13.6-15.1,13.6H787.5z M723.8,487.1c3.4,0,6.8,1.2,9.5,3.4c15.6,12.5,33,22.4,51.7,29.4c5.4,2,9.2,6.9,9.8,12.7
		l6.5,64h99.1l6.5-64c0.6-5.8,4.3-10.6,9.8-12.7c18.7-7,36.1-16.9,51.7-29.4c2.7-2.2,6.1-3.4,9.5-3.4c2.1,0,4.2,0.4,6.1,1.3
		l59.9,26.6l49.4-84.2l-53-37.5c-4.7-3.3-7.1-9.1-6.2-14.8c1.6-9.7,2.4-19.5,2.4-29.3c0-9.8-0.8-19.6-2.4-29.3
		c-0.9-5.7,1.5-11.5,6.2-14.8l53-37.5l-49.4-84.2L984,210c-1.9,0.9-4,1.3-6.2,1.3c-3.4,0-6.8-1.2-9.5-3.4
		c-15.6-12.5-33-22.4-51.7-29.4c-5.4-2-9.2-6.9-9.8-12.7l-6.5-64h-99.1l-6.5,64c-0.6,5.8-4.3,10.6-9.8,12.7
		c-18.7,7-36.1,16.9-51.7,29.4c-2.7,2.2-6.1,3.4-9.5,3.4c-2.1,0-4.2-0.4-6.1-1.3l-59.9-26.6l-49.4,84.2l53,37.5
		c4.7,3.3,7.1,9.1,6.2,14.8c-1.6,9.7-2.4,19.5-2.4,29.3c0,9.8,0.8,19.6,2.4,29.3c0.9,5.7-1.5,11.5-6.2,14.8l-53,37.5l49.4,84.2
		l59.9-26.6C719.6,487.6,721.6,487.1,723.8,487.1z"/>
	<path class="st0" d="M848.4,434.7c-47.1,0-85.5-38.3-85.5-85.5s38.3-85.5,85.5-85.5c47.1,0,85.5,38.3,85.5,85.5
		C933.9,396.3,895.6,434.7,848.4,434.7L848.4,434.7z M848.4,294.1c-30.4,0-55.2,24.7-55.2,55.2s24.7,55.2,55.2,55.2
		s55.2-24.7,55.2-55.2S878.9,294.1,848.4,294.1z"/>
	<path class="st0" d="M455.8,187.3c12-4.2,24.3-7.9,36.7-11l6.1,29.7c-10.6,2.7-21.1,5.9-31.4,9.4L455.8,187.3z"/>
	<path class="st0" d="M185.2,540.2c-5,0-9.7-2.5-12.5-6.6L118.3,454l25-17.1l33.1,48.4l13.4-36.4c31.1-84.4,88.4-157.9,162.4-209
		l16.1,25.7c-68.8,47.8-121.8,116.4-150.5,195.1l-15,41.2l68.5-26.2l10.8,28.3l-91.5,35C188.8,539.8,187,540.2,185.2,540.2z"/>
	<path class="st0" d="M700.3,994.2c10.3-2.6,20.4-5.6,30.5-9l11.2,28.2c-11.7,4-23.6,7.5-35.6,10.5L700.3,994.2z"/>
	<path class="st0" d="M826.3,938c32.3-21.6,61.2-47.7,86.2-77.6c29-34.8,51.9-73.8,67.9-116l17.5-46L932,729.1l-12.8-27.5l88.8-41.3
		c2-0.9,4.2-1.4,6.4-1.4c4.7,0,9,2.1,11.9,5.8l59.8,75.6l-23.8,18.8l-37.9-48l-12,34.2c-31.4,89.3-91.6,166.3-170.4,218.8L826.3,938
		z"/>
</g>
</svg>
