<svg xmlns="http://www.w3.org/2000/svg" viewBox="0 0 235.94 51.88"><defs><style>.a{fill:#3a2878;}.b{fill:#eb5d11;}</style></defs><path class="a" d="M9.68,51.42h0A9.68,9.68,0,0,1,0,41.74V9.85a9.68,9.68,0,1,1,19.36,0V41.74a9.68,9.68,0,0,1-9.68,9.68"/><path class="a" d="M45.65,12.56A12.67,12.67,0,1,1,32.87,0H33A12.62,12.62,0,0,1,45.65,12.56h0"/><path class="b" d="M56,.05h0a9.68,9.68,0,0,1,9.7,9.66V41.63a9.68,9.68,0,1,1-19.36,0V9.74A9.69,9.69,0,0,1,56,.05"/><path class="b" d="M20,39.33A12.67,12.67,0,1,1,32.82,51.88h-.14A12.61,12.61,0,0,1,20,39.33"/><path class="a" d="M115.1,36.32a1.22,1.22,0,0,1-1.21,1.21,2.1,2.1,0,0,0-1.37.43,3.34,3.34,0,0,0-1.06,1.09,6.8,6.8,0,0,0-.94,1.91v4.31a1.26,1.26,0,0,1-1.25,1.21,1.22,1.22,0,0,1-1.17-1.21v-9a1.18,1.18,0,0,1,1.22-1.18h0a1.22,1.22,0,0,1,1.25,1.18v.16a2.62,2.62,0,0,1,.49-.45,4.93,4.93,0,0,1,2.88-.89,1.17,1.17,0,0,1,1.16,1.19v0"/><path class="a" d="M124.82,40.82a3.35,3.35,0,0,0-.89-2.34,2.84,2.84,0,0,0-2.13-.93,2.74,2.74,0,0,0-2.13.93,3.25,3.25,0,0,0-.87,2.34,3.39,3.39,0,0,0,.87,2.34,2.91,2.91,0,0,0,2.13.89,3.09,3.09,0,0,0,2.13-.89,3.44,3.44,0,0,0,.89-2.34m2.43,0v4.45A1.22,1.22,0,0,1,126,46.48a1.26,1.26,0,0,1-1.19-1,5.22,5.22,0,0,1-6.89-.66,5.83,5.83,0,0,1-1.56-4,5.71,5.71,0,0,1,1.56-4,5.21,5.21,0,0,1,6.93-.7,1.19,1.19,0,0,1,2.37.27Z"/><path class="a" d="M134.22,36.39v8.86A1.23,1.23,0,0,1,133,46.48h0a1.24,1.24,0,0,1-1.24-1.22h0V36.39a1.21,1.21,0,0,1,1.19-1.25H133a1.2,1.2,0,0,1,1.23,1.16v.09m0-4.11A1.24,1.24,0,0,1,133,33.53h0a1.25,1.25,0,0,1-1.24-1.25V31.8A1.21,1.21,0,0,1,133,30.58h0a1.2,1.2,0,0,1,1.23,1.16v.54Z"/><path class="a" d="M137.61,43.23a1.19,1.19,0,0,1,1.68-.21l0,0a4.19,4.19,0,0,0,2.51,1,3.19,3.19,0,0,0,1.56-.44,1,1,0,0,0,.41-.68.34.34,0,0,0-.07-.22c0-.07-.11-.16-.3-.28a5.45,5.45,0,0,0-1.83-.63h0a9.2,9.2,0,0,1-2-.59A3.84,3.84,0,0,1,138,39.89a2.7,2.7,0,0,1-.39-1.43A3.16,3.16,0,0,1,139,36a4.94,4.94,0,0,1,2.82-.84,5.87,5.87,0,0,1,3.42,1.27,1.2,1.2,0,1,1-1.33,2,3.83,3.83,0,0,0-2.1-.84,2.31,2.31,0,0,0-1.38.41.66.66,0,0,0-.36.52.28.28,0,0,0,0,.18.58.58,0,0,0,.26.23,4.82,4.82,0,0,0,1.67.54h0a7.71,7.71,0,0,1,2.13.65,3.54,3.54,0,0,1,1.7,1.31,2.92,2.92,0,0,1,.44,1.5,3.33,3.33,0,0,1-1.44,2.64,5.35,5.35,0,0,1-3,.91,6.73,6.73,0,0,1-4.07-1.57,1.21,1.21,0,0,1-.16-1.68"/><path class="a" d="M151.1,39.69h6.47a3.72,3.72,0,0,0-3.38-2.41,3.16,3.16,0,0,0-3.09,2.41m-2.5,1.11a5.64,5.64,0,0,1,5.59-5.68,5.45,5.45,0,0,1,5.52,5.27v.11a.74.74,0,0,1,0,.21,1.12,1.12,0,0,1-1.19.91h-7.3a3,3,0,0,0,.78,1.5,3.61,3.61,0,0,0,2.2,1,3.78,3.78,0,0,0,2.38-.57,1.3,1.3,0,0,1,1.71-.07,1,1,0,0,1,.06,1.41l-.06.07a5.87,5.87,0,0,1-4.09,1.5,5.67,5.67,0,0,1-5.59-5.68"/><path class="a" d="M164.56,43.25a1.69,1.69,0,0,1,1.82,1.56,1.71,1.71,0,0,1-1.56,1.83h-.26a1.7,1.7,0,0,1,0-3.39"/><path class="a" d="M97.27,9a9.19,9.19,0,0,1,1.12,4.92v7.53a1.71,1.71,0,0,1-.5,1.27,1.81,1.81,0,0,1-2.54,0,1.72,1.72,0,0,1-.51-1.27V13.88a4.46,4.46,0,0,0-.63-2.54A2.53,2.53,0,0,0,92,10.41a3.41,3.41,0,0,0-2.59,1,3.47,3.47,0,0,0-.93,2.48v7.53a1.75,1.75,0,0,1-.5,1.27,1.82,1.82,0,0,1-2.55,0,1.75,1.75,0,0,1-.5-1.27V13.88a4.38,4.38,0,0,0-.64-2.54A2.51,2.51,0,0,0,82,10.41a3.38,3.38,0,0,0-2.59,1,3.47,3.47,0,0,0-.93,2.48v7.53a1.75,1.75,0,0,1-.5,1.27A1.78,1.78,0,0,1,75,21.41V9.27A1.8,1.8,0,0,1,78,8a1.77,1.77,0,0,1,.5,1.28v.47a7.11,7.11,0,0,1,2-1.81,5.12,5.12,0,0,1,2.73-.75Q87,7.18,88,10.41a7,7,0,0,1,2-2.23,5.17,5.17,0,0,1,3.13-1C95.17,7.18,96.52,7.77,97.27,9Z"/><path class="a" d="M104.52,5.24a1.35,1.35,0,0,1-.41-1.14V3.54a1.33,1.33,0,0,1,.44-1.15,3.38,3.38,0,0,1,2.87,0,1.38,1.38,0,0,1,.41,1.15V4.1a1.37,1.37,0,0,1-.42,1.16,2.69,2.69,0,0,1-1.47.3A2.34,2.34,0,0,1,104.52,5.24Zm2.72,17.44a1.81,1.81,0,0,1-2.54,0,1.72,1.72,0,0,1-.51-1.27V9.27A1.74,1.74,0,0,1,104.7,8a1.84,1.84,0,0,1,2.54,0,1.74,1.74,0,0,1,.51,1.28V21.41A1.72,1.72,0,0,1,107.24,22.68Z"/><path class="a" d="M124.5,8A2.34,2.34,0,0,1,126,10a1.74,1.74,0,0,1-.38,1.13,1.21,1.21,0,0,1-1,.49,2.09,2.09,0,0,1-.77-.13,2.71,2.71,0,0,1-.57-.36,4,4,0,0,0-.55-.36,3.76,3.76,0,0,0-.87-.27,4.89,4.89,0,0,0-.94-.12,4.48,4.48,0,0,0-3.47,1.37,5.06,5.06,0,0,0-1.26,3.57,5,5,0,0,0,1.27,3.51,4.21,4.21,0,0,0,3.26,1.4,5.19,5.19,0,0,0,2.16-.35,3.91,3.91,0,0,0,.49-.31,2.94,2.94,0,0,1,.57-.34,1.6,1.6,0,0,1,.65-.12,1.5,1.5,0,0,1,1.17.47,1.72,1.72,0,0,1,.43,1.21,1.7,1.7,0,0,1-.83,1.32,6.56,6.56,0,0,1-2.19,1,11.24,11.24,0,0,1-2.9.36,7.51,7.51,0,0,1-4-1.06,7.05,7.05,0,0,1-2.67-2.92,8.94,8.94,0,0,1-1-4.16,8.81,8.81,0,0,1,1-4.23,7.23,7.23,0,0,1,2.77-2.9,7.82,7.82,0,0,1,4-1A9,9,0,0,1,124.5,8Z"/><path class="a" d="M140.67,7.68a1.5,1.5,0,0,1,.6,1.18,1.78,1.78,0,0,1-.47,1.36,1.55,1.55,0,0,1-1.12.46,2.9,2.9,0,0,1-1-.21l-.4-.11a2.41,2.41,0,0,0-.67-.09,2.56,2.56,0,0,0-1.47.47A3.35,3.35,0,0,0,135,12.16a5.18,5.18,0,0,0-.46,2.28v7a1.72,1.72,0,0,1-.51,1.27,1.81,1.81,0,0,1-2.54,0,1.71,1.71,0,0,1-.5-1.27V9.27a1.73,1.73,0,0,1,.5-1.28A1.84,1.84,0,0,1,134,8a1.74,1.74,0,0,1,.51,1.28v.38a4.45,4.45,0,0,1,1.95-1.84,6.07,6.07,0,0,1,2.72-.63A2.32,2.32,0,0,1,140.67,7.68Z"/><path class="a" d="M159.44,19.57a7.48,7.48,0,0,1-2.91,2.89,8.58,8.58,0,0,1-8.15,0,7.46,7.46,0,0,1-2.9-2.89,8.35,8.35,0,0,1-1.07-4.22,8.38,8.38,0,0,1,1.07-4.22,7.65,7.65,0,0,1,2.9-2.91,8.5,8.5,0,0,1,8.15,0,7.67,7.67,0,0,1,2.91,2.91,8.38,8.38,0,0,1,1.07,4.22A8.35,8.35,0,0,1,159.44,19.57Zm-3.09-6.79A4.45,4.45,0,0,0,154.72,11a4.43,4.43,0,0,0-4.52,0,4.45,4.45,0,0,0-1.63,1.75,5.28,5.28,0,0,0-.61,2.57,5.24,5.24,0,0,0,.61,2.56,4.46,4.46,0,0,0,1.63,1.73,4.43,4.43,0,0,0,4.52,0,4.46,4.46,0,0,0,1.63-1.73,5.24,5.24,0,0,0,.61-2.56A5.28,5.28,0,0,0,156.35,12.78Z"/><path class="a" d="M164.45,19.88a1.55,1.55,0,0,1,.77-1.3,1.59,1.59,0,0,1,.85-.26,1.7,1.7,0,0,1,1.19.56,6.11,6.11,0,0,0,1.85,1.35,5.58,5.58,0,0,0,2.32.44c1.54-.06,2.31-.64,2.31-1.73a1.41,1.41,0,0,0-.79-1.3,11.49,11.49,0,0,0-2.44-.88,20,20,0,0,1-2.79-.94,5,5,0,0,1-1.87-1.42,4,4,0,0,1-.78-2.58,3.88,3.88,0,0,1,.81-2.45A5.45,5.45,0,0,1,168,7.75a7,7,0,0,1,2.8-.57,8.75,8.75,0,0,1,3,.56,5.2,5.2,0,0,1,2.36,1.65,1.59,1.59,0,0,1,.39,1,1.37,1.37,0,0,1-.56,1.12,1.48,1.48,0,0,1-1,.32,1.41,1.41,0,0,1-1.06-.41,3.91,3.91,0,0,0-1.38-1,4.65,4.65,0,0,0-1.91-.38q-2.25,0-2.25,1.62a1.36,1.36,0,0,0,.42,1,2.71,2.71,0,0,0,1.05.62c.42.15,1,.33,1.79.54a21.32,21.32,0,0,1,2.66.91,4.65,4.65,0,0,1,1.8,1.44,4.08,4.08,0,0,1,.74,2.56,3.89,3.89,0,0,1-.85,2.51,5.42,5.42,0,0,1-2.21,1.63,7,7,0,0,1-2.77.56,10,10,0,0,1-3.63-.64,6,6,0,0,1-2.76-2.09A1.41,1.41,0,0,1,164.45,19.88Z"/><path class="a" d="M182.17,5.24a1.38,1.38,0,0,1-.41-1.14V3.54a1.35,1.35,0,0,1,.44-1.15,2.5,2.5,0,0,1,1.42-.32,2.46,2.46,0,0,1,1.45.32,1.38,1.38,0,0,1,.42,1.15V4.1a1.38,1.38,0,0,1-.43,1.16,2.69,2.69,0,0,1-1.47.3A2.34,2.34,0,0,1,182.17,5.24Zm2.72,17.44a1.81,1.81,0,0,1-2.54,0,1.71,1.71,0,0,1-.5-1.27V9.27a1.73,1.73,0,0,1,.5-1.28,1.84,1.84,0,0,1,2.54,0,1.74,1.74,0,0,1,.51,1.28V21.41A1.72,1.72,0,0,1,184.89,22.68Z"/><path class="a" d="M199.59,20.27a1.61,1.61,0,0,1,.34,1.05,1.57,1.57,0,0,1-.88,1.34,3.63,3.63,0,0,1-2,.54,5.78,5.78,0,0,1-3.1-.78c-.84-.52-1.25-1.62-1.25-3.31V11h-1.36a1.61,1.61,0,0,1-1.66-1.64,1.55,1.55,0,0,1,.47-1.14,1.66,1.66,0,0,1,1.19-.45h1.36V5.89a1.74,1.74,0,0,1,.51-1.28,1.78,1.78,0,0,1,1.29-.51,1.67,1.67,0,0,1,1.24.51,1.74,1.74,0,0,1,.51,1.28V7.77h2.1a1.61,1.61,0,0,1,1.18.47,1.56,1.56,0,0,1,.48,1.17,1.51,1.51,0,0,1-.48,1.14,1.64,1.64,0,0,1-1.18.45h-2.1v8a1.12,1.12,0,0,0,.32.89,1.32,1.32,0,0,0,.89.28,2.44,2.44,0,0,0,.65-.12,1.92,1.92,0,0,1,.68-.14A1,1,0,0,1,199.59,20.27Z"/><path class="a" d="M219,16.12a1.93,1.93,0,0,1-1.25.44H208a4.45,4.45,0,0,0,1.62,2.72,4.62,4.62,0,0,0,2.88,1,6.3,6.3,0,0,0,1.89-.22,5.09,5.09,0,0,0,1.08-.47l.55-.34a2.19,2.19,0,0,1,1-.26,1.44,1.44,0,0,1,1.07.44,1.41,1.41,0,0,1,.44,1,1.81,1.81,0,0,1-.83,1.44A7,7,0,0,1,215.43,23a8.5,8.5,0,0,1-2.81.47,8.72,8.72,0,0,1-4.33-1,7.15,7.15,0,0,1-2.86-2.83,8.24,8.24,0,0,1-1-4.07,9,9,0,0,1,1.06-4.44A7.53,7.53,0,0,1,208.3,8.2a7.3,7.3,0,0,1,3.73-1,7,7,0,0,1,3.69,1.06,7.94,7.94,0,0,1,2.76,2.85,7.65,7.65,0,0,1,1,3.88A1.54,1.54,0,0,1,219,16.12Zm-11-2.5h7.75v-.21a3,3,0,0,0-1.21-2.11,3.86,3.86,0,0,0-2.49-.89Q208.6,10.41,208,13.62Z"/><path class="a" d="M223.45,19.88a1.57,1.57,0,0,1,.77-1.3,1.53,1.53,0,0,1,2,.3,6.24,6.24,0,0,0,1.85,1.35,5.66,5.66,0,0,0,2.33.44c1.54-.06,2.31-.64,2.31-1.73a1.43,1.43,0,0,0-.79-1.3,11.49,11.49,0,0,0-2.44-.88,20.14,20.14,0,0,1-2.8-.94,4.93,4.93,0,0,1-1.86-1.42,4,4,0,0,1-.78-2.58,3.88,3.88,0,0,1,.81-2.45A5.45,5.45,0,0,1,227,7.75a7,7,0,0,1,2.8-.57,8.75,8.75,0,0,1,3,.56,5.2,5.2,0,0,1,2.36,1.65,1.59,1.59,0,0,1,.39,1,1.36,1.36,0,0,1-.57,1.12,1.45,1.45,0,0,1-.94.32,1.43,1.43,0,0,1-1.07-.41,3.78,3.78,0,0,0-1.37-1,4.68,4.68,0,0,0-1.91-.38q-2.25,0-2.25,1.62a1.39,1.39,0,0,0,.41,1,2.87,2.87,0,0,0,1.05.62c.43.15,1,.33,1.79.54a21,21,0,0,1,2.67.91,4.65,4.65,0,0,1,1.8,1.44,4.08,4.08,0,0,1,.74,2.56,3.84,3.84,0,0,1-.86,2.51,5.32,5.32,0,0,1-2.2,1.63,7,7,0,0,1-2.77.56,10.13,10.13,0,0,1-3.64-.64,6.06,6.06,0,0,1-2.75-2.09A1.42,1.42,0,0,1,223.45,19.88Z"/><path class="a" d="M178.38,30.78a.6.6,0,0,1,.19.46v14.6a.59.59,0,0,1-.19.46.63.63,0,0,1-.46.18.66.66,0,0,1-.47-.18.62.62,0,0,1-.18-.46v-1.5A4.66,4.66,0,0,1,175.66,46a4.27,4.27,0,0,1-2.37.69,4.71,4.71,0,0,1-2.58-.74,5.28,5.28,0,0,1-1.83-2.05,6.49,6.49,0,0,1-.67-2.94,6.37,6.37,0,0,1,.67-2.92,5.14,5.14,0,0,1,1.83-2,4.77,4.77,0,0,1,4.92-.11,4.37,4.37,0,0,1,1.64,1.64V31.24a.63.63,0,0,1,.18-.46.66.66,0,0,1,.47-.18A.63.63,0,0,1,178.38,30.78Zm-2.94,14.14a4,4,0,0,0,1.41-1.62,5.24,5.24,0,0,0,.51-2.33,5.11,5.11,0,0,0-.51-2.3,4,4,0,0,0-1.41-1.62,3.75,3.75,0,0,0-4,0,3.89,3.89,0,0,0-1.4,1.62,5.11,5.11,0,0,0-.51,2.3,5.17,5.17,0,0,0,.51,2.32,4,4,0,0,0,1.4,1.62,3.62,3.62,0,0,0,2,.59A3.7,3.7,0,0,0,175.44,44.92Z"/><path class="a" d="M183.47,33.68a.73.73,0,0,1-.23-.59v-.22a.75.75,0,0,1,.24-.59,1.11,1.11,0,0,1,.69-.2c.57,0,.86.26.86.79v.22a.76.76,0,0,1-.23.59,1,1,0,0,1-.66.2A1,1,0,0,1,183.47,33.68Zm1.14,12.62a.64.64,0,0,1-.47.18.63.63,0,0,1-.46-.18.63.63,0,0,1-.19-.46V36a.67.67,0,0,1,.19-.47.63.63,0,0,1,.46-.18.64.64,0,0,1,.47.18.66.66,0,0,1,.18.47v9.87A.62.62,0,0,1,184.61,46.3Z"/><path class="a" d="M199.54,35.7a.62.62,0,0,1,.19.48v9.3a5.61,5.61,0,0,1-.7,2.86,4.64,4.64,0,0,1-1.93,1.82,6.14,6.14,0,0,1-2.8.62,7.06,7.06,0,0,1-1.59-.2,5.89,5.89,0,0,1-1.42-.49c-.4-.2-.63-.41-.68-.62a.5.5,0,0,1-.16-.35.4.4,0,0,1,.2-.34.38.38,0,0,1,.22-.06,1.68,1.68,0,0,1,.49.15l.46.19a7.08,7.08,0,0,0,2.5.52,4.11,4.11,0,0,0,3-1.09,3.93,3.93,0,0,0,1.09-2.93V44.23A3.94,3.94,0,0,1,196.72,46a4.89,4.89,0,0,1-2.44.66,5.06,5.06,0,0,1-2.69-.74,5.27,5.27,0,0,1-1.89-2.05A6.25,6.25,0,0,1,189,41a6.14,6.14,0,0,1,.69-2.92,5.13,5.13,0,0,1,1.89-2,4.93,4.93,0,0,1,2.67-.74,4.8,4.8,0,0,1,2.5.67,4.57,4.57,0,0,1,1.67,1.62V36.18a.66.66,0,0,1,.18-.47.63.63,0,0,1,.47-.2A.59.59,0,0,1,199.54,35.7Zm-3,9.23A4,4,0,0,0,198,43.32a5.17,5.17,0,0,0,.53-2.35,5,5,0,0,0-.53-2.34,4,4,0,0,0-1.47-1.6,4,4,0,0,0-2.13-.57,3.92,3.92,0,0,0-2.11.59,4,4,0,0,0-1.47,1.62,5,5,0,0,0-.53,2.3,5,5,0,0,0,.53,2.32,4.11,4.11,0,0,0,1.47,1.62,3.92,3.92,0,0,0,2.11.59A4,4,0,0,0,196.52,44.93Z"/><path class="a" d="M204.66,33.68a.73.73,0,0,1-.24-.59v-.22a.72.72,0,0,1,.25-.59,1.06,1.06,0,0,1,.68-.2c.58,0,.86.26.86.79v.22a.76.76,0,0,1-.22.59,1,1,0,0,1-.66.2A1,1,0,0,1,204.66,33.68Zm1.13,12.62a.63.63,0,0,1-.46.18.64.64,0,0,1-.47-.18.62.62,0,0,1-.18-.46V36a.66.66,0,0,1,.18-.47.64.64,0,0,1,.47-.18.63.63,0,0,1,.46.18A.66.66,0,0,1,206,36v9.87A.62.62,0,0,1,205.79,46.3Z"/><path class="a" d="M229.27,35.71a.66.66,0,0,1,.18.47v9.66a.62.62,0,0,1-.18.46.66.66,0,0,1-.47.18.62.62,0,0,1-.46-.18.59.59,0,0,1-.19-.46V44.4A4.43,4.43,0,0,1,226.53,46a4.36,4.36,0,0,1-2.35.67,4.69,4.69,0,0,1-2.61-.75,5.21,5.21,0,0,1-1.82-2.06,6.83,6.83,0,0,1,0-5.88,5.12,5.12,0,0,1,1.83-2,4.68,4.68,0,0,1,2.56-.73,4.62,4.62,0,0,1,2.38.62,4.09,4.09,0,0,1,1.62,1.63V36.18a.63.63,0,0,1,.19-.47.6.6,0,0,1,.46-.2A.63.63,0,0,1,229.27,35.71Zm-2.94,9.2a4.13,4.13,0,0,0,1.4-1.63,5.27,5.27,0,0,0,.51-2.33,5.09,5.09,0,0,0-.51-2.28,4,4,0,0,0-1.4-1.62,3.66,3.66,0,0,0-2-.59,3.61,3.61,0,0,0-2,.58,3.9,3.9,0,0,0-1.4,1.6,5.09,5.09,0,0,0-.51,2.31,5.41,5.41,0,0,0,.5,2.33,4,4,0,0,0,1.39,1.63,3.8,3.8,0,0,0,4.07,0Z"/><path class="a" d="M235.66,46.3a.62.62,0,0,1-.46.18.66.66,0,0,1-.47-.18.62.62,0,0,1-.18-.46V31.24a.63.63,0,0,1,.18-.46.66.66,0,0,1,.47-.18.62.62,0,0,1,.46.18.6.6,0,0,1,.19.46v14.6A.59.59,0,0,1,235.66,46.3Z"/><path class="a" d="M213.09,39V36.76h2.16a.6.6,0,0,0,.43-.16.54.54,0,0,0,.17-.42.61.61,0,0,0-.18-.43.55.55,0,0,0-.42-.19h-2.16V31.78a.65.65,0,0,0-.65-.65.63.63,0,0,0-.47.19.62.62,0,0,0-.18.46v1.39h0v2.39h-1.58a.6.6,0,0,0-.44.17.57.57,0,0,0-.19.43.59.59,0,0,0,.19.43.64.64,0,0,0,.44.17h1.58V44a2.79,2.79,0,0,0,.42,1.71,1.62,1.62,0,0,0,.88.65,4.55,4.55,0,0,0,1,.1,1.57,1.57,0,0,0,.83-.2.58.58,0,0,0,.34-.5.57.57,0,0,0-.14-.38.41.41,0,0,0-.33-.16,1.5,1.5,0,0,0-.31,0,1.1,1.1,0,0,1-.32.06,1.12,1.12,0,0,1-.8-.29,1.57,1.57,0,0,1-.3-1.11V39Z"/><path class="a" d="M82.8,35.94a5,5,0,0,1,1.82,2,6.35,6.35,0,0,1,.66,2.93,6.47,6.47,0,0,1-.66,2.93,5.15,5.15,0,0,1-1.81,2.07,4.67,4.67,0,0,1-2.59.75A4.43,4.43,0,0,1,77.94,46a5,5,0,0,1-1.69-1.62v1.41a.69.69,0,0,1-.19.48.6.6,0,0,1-.46.19.63.63,0,0,1-.47-.19.68.68,0,0,1-.18-.48V31.21a.63.63,0,0,1,.18-.46.66.66,0,0,1,.47-.18.63.63,0,0,1,.46.18.64.64,0,0,1,.19.46v6.34a4.53,4.53,0,0,1,1.64-1.7,4.35,4.35,0,0,1,2.31-.64A4.79,4.79,0,0,1,82.8,35.94Zm-.69,8.91a4.07,4.07,0,0,0,1.41-1.65,5.46,5.46,0,0,0,0-4.61A4,4,0,0,0,82.11,37a3.59,3.59,0,0,0-2-.58A3.79,3.79,0,0,0,78,37a3.71,3.71,0,0,0-1.4,1.6,5.13,5.13,0,0,0-.5,2.32,5.24,5.24,0,0,0,.51,2.33,4,4,0,0,0,1.4,1.63,3.66,3.66,0,0,0,2,.59A3.53,3.53,0,0,0,82.11,44.85Z"/><path class="a" d="M98.24,35.45a.66.66,0,0,1,.18.47v9.46a5.84,5.84,0,0,1-.67,2.9,4.43,4.43,0,0,1-1.86,1.83,5.71,5.71,0,0,1-2.67.62,7.56,7.56,0,0,1-1.7-.19A4.42,4.42,0,0,1,90.21,50c-.3-.19-.45-.39-.45-.62a1.12,1.12,0,0,1,0-.22.58.58,0,0,1,.54-.43.63.63,0,0,1,.26.07,5.54,5.54,0,0,0,2.64.75,3.7,3.7,0,0,0,2.84-1.12,4.26,4.26,0,0,0,1-3v-.76a3.91,3.91,0,0,1-1.56,1.45,4.52,4.52,0,0,1-2.2.55,3.57,3.57,0,0,1-2.86-1.12,4.42,4.42,0,0,1-1-3V35.92a.62.62,0,0,1,.65-.65.62.62,0,0,1,.46.18.63.63,0,0,1,.19.47v6.39a3.48,3.48,0,0,0,.68,2.34,2.65,2.65,0,0,0,2.13.8A3.52,3.52,0,0,0,95.34,45a3.66,3.66,0,0,0,1.3-1.16,2.66,2.66,0,0,0,.49-1.54V35.92a.66.66,0,0,1,.18-.47.64.64,0,0,1,.47-.18A.63.63,0,0,1,98.24,35.45Z"/></svg>