<?xml version="1.0" encoding="utf-8"?>
<!-- Generator: Adobe Illustrator 26.1.0, SVG Export Plug-In . SVG Version: 6.00 Build 0)  -->
<svg version="1.1" id="Layer_1" xmlns="http://www.w3.org/2000/svg" xmlns:xlink="http://www.w3.org/1999/xlink" x="0px" y="0px"
	 viewBox="0 0 73 73" style="enable-background:new 0 0 73 73;" xml:space="preserve">
<style type="text/css">
	.st0{fill:#FFFFFF;}
</style>
<g>
	<path class="st0" d="M51.1,52.5c3.9,0,7-3.1,7-7s-3.1-7-7-7s-7,3.1-7,7S47.2,52.5,51.1,52.5z M51.1,40.5c2.8,0,5,2.2,5,5
		s-2.2,5-5,5s-5-2.2-5-5S48.3,40.5,51.1,40.5z"/>
	<path class="st0" d="M51.1,48.5c1.7,0,3-1.3,3-3s-1.3-3-3-3s-3,1.3-3,3S49.4,48.5,51.1,48.5z M51.1,44.5c0.6,0,1,0.4,1,1
		s-0.4,1-1,1s-1-0.4-1-1S50.5,44.5,51.1,44.5z"/>
	<path class="st0" d="M57.2,61.6l0.7-1.1h11.4L68,53.9l-6-5c0.1-0.7,0.1-1.5,0.1-2.2c0-0.1,0-0.1,0-0.2h0v-33c0-1.7-1.3-3-3-3h-49
		c-1.7,0-3,1.3-3,3v42c0,1.7,1.3,3,3,3h23.2l-0.4,2h11.4l0.7,1.1l-0.4,1c-1,2.5-0.2,5.4,2,7l1.9,1.4l1.9-3.8
		c1.1,1.2,1.7,2.7,1.7,4.3v1h2.5l1.7-2.1c1.9-2.3,2.3-5.5,1.2-8.2L57.2,61.6z M46.6,60.5l-1.1-1.8c-0.5-0.7-0.9-1.5-1.2-2.2h13.5
		c-0.4,0.8-0.8,1.5-1.2,2.2l-1.1,1.8H46.6z M44.5,36.5h13.2c1.6,3.2,2.4,6.6,2.4,10.2c0,2.7-0.5,5.3-1.4,7.8H43.5
		c-0.9-2.5-1.4-5.1-1.4-7.8C42.1,43.1,42.9,39.6,44.5,36.5z M45.6,34.5c0.1-0.1,0.2-0.3,0.3-0.4l2.9-4.4c0.5-0.8,1.4-1.2,2.3-1.2
		s1.8,0.5,2.3,1.2l2.9,4.4c0.1,0.1,0.2,0.3,0.3,0.4L45.6,34.5L45.6,34.5z M66.2,55l0.7,3.5h-7.8c1.2-2.3,2.1-4.7,2.6-7.2L66.2,55z
		 M10.1,12.5h49c0.6,0,1,0.4,1,1v9h-51v-9C9.1,12.9,9.5,12.5,10.1,12.5z M33.7,56.5H10.1c-0.6,0-1-0.4-1-1v-31h51v12.5
		c-0.6-1.4-1.3-2.7-2.2-4L55,28.6c-0.9-1.3-2.4-2.1-3.9-2.1s-3.1,0.8-3.9,2.1l-2.9,4.4c-2.7,4.1-4.2,8.8-4.2,13.7
		c0,0.8,0,1.5,0.1,2.2l-6,5L33.7,56.5z M36,55l4.5-3.8c0.5,2.5,1.3,5,2.6,7.2h-7.8L36,55z M54.7,69.1L54,70
		c-0.3-1.7-1.1-3.2-2.3-4.4l-1.9-1.9l-2.1,4.2c-1.4-1.1-2-3-1.3-4.7l0.3-0.8h8.6l0.2,0.5C56.4,65,56.1,67.4,54.7,69.1z"/>
	<path class="st0" d="M17.1,14.5h-6v6h6V14.5z M15.1,18.5h-2v-2h2V18.5z"/>
	<path class="st0" d="M25.1,14.5h-6v6h6V14.5z M23.1,18.5h-2v-2h2V18.5z"/>
	<path class="st0" d="M33.1,14.5h-6v6h6V14.5z M31.1,18.5h-2v-2h2V18.5z"/>
	<path class="st0" d="M35.1,26.5h-6v20h-2v-12h-6v12h-2v-8h-6v8h-2v2h26v-2h-2V26.5z M31.1,28.5h2v18h-2V28.5z M23.1,36.5h2v10h-2
		V36.5z M15.1,40.5h2v6h-2V40.5z"/>
	<rect x="11.1" y="26.5" class="st0" width="2" height="2"/>
	<rect x="15.1" y="26.5" class="st0" width="10" height="2"/>
	<rect x="11.1" y="30.5" class="st0" width="2" height="2"/>
	<rect x="15.1" y="30.5" class="st0" width="10" height="2"/>
</g>
</svg>
