<svg xmlns="http://www.w3.org/2000/svg" xmlns:xlink="http://www.w3.org/1999/xlink" version="1.1" x="0px" y="0px"
     viewBox="0 0 64 64" style="enable-background:new 0 0 64 64;" xml:space="preserve"><g><g>
    <style type="text/css">
	.st0{fill:#fff;}
</style>

    <path class="st0" d="M23,55C10.869,55,1,45.131,1,33s9.869-22,22-22s22,9.869,22,22S35.131,55,23,55z M23,13C11.972,13,3,21.972,3,33    s8.972,20,20,20s20-8.972,20-20S34.028,13,23,13z"></path></g><g>
    <path  class="st0" d="M23,51c-9.925,0-18-8.075-18-18s8.075-18,18-18s18,8.075,18,18S32.925,51,23,51z M23,17c-8.822,0-16,7.178-16,16    s7.178,16,16,16s16-7.178,16-16S31.822,17,23,17z"></path></g><g>
    <path  class="st0" d="M23,37c-2.206,0-4-1.794-4-4s1.794-4,4-4s4,1.794,4,4S25.206,37,23,37z M23,31c-1.103,0-2,0.897-2,2s0.897,2,2,2    s2-0.897,2-2S24.103,31,23,31z"></path></g><g>
    <path  class="st0" d="M32,9H14V1h18V9z M16,7h14V3H16V7z"></path></g><g>
    <rect class="st0" x="25" y="8" width="2" height="4"></rect></g><g>
    <rect  class="st0" x="19" y="8" width="2" height="4"></rect></g><g>
    <rect  class="st0" x="23.185" y="26" transform="matrix(0.6584 -0.7526 0.7526 0.6584 -10.5866 30.6724)" width="10.63" height="2.001"></rect></g><g>
    <polygon class="st0" points="63,63 17,63 17,54 19,54 19,61 61,61 61,35 44,35 44,33 63,33   "></polygon></g><g>
    <rect  class="st0" x="45" y="34" width="2" height="28"></rect></g><g>
    <polygon class="st0" points="57,45 51,45 51,34 53,34 53,43 55,43 55,34 57,34   "></polygon></g><g>
    <rect  class="st0" x="41" y="57" width="2" height="2"></rect></g><g>
    <rect  class="st0" x="37" y="57" width="2" height="2"></rect></g><g>
    <rect  class="st0" x="41" y="53" width="2" height="2"></rect></g></g></svg>
