<svg xmlns="http://www.w3.org/2000/svg" xmlns:xlink="http://www.w3.org/1999/xlink" version="1.1" x="0px" y="0px"
     viewBox="25 -25 100 100" style="enable-background:new 25 -25 100 100;" xml:space="preserve">
            <style type="text/css">
	.st0{fill:#fff;}
</style>
    <path class="st0" d="M75,17c4.2,0,8.4-1.6,11.5-4.8c6.4-6.4,6.4-16.7,0-23.1s-16.7-6.4-23.1,0s-6.4,16.7,0,23.1C66.6,15.4,70.8,17,75,17z   M65.5-8.9c2.5-2.5,5.9-4,9.5-4s7,1.4,9.5,4c2.5,2.5,4,5.9,4,9.5s-1.4,7-4,9.5c-5.3,5.3-13.8,5.3-19.1,0c-2.5-2.5-4-5.9-4-9.5  C61.5-3,62.9-6.4,65.5-8.9z"></path>
    <g><path class="st0" d="M56.5,33.2C56.6,33.2,56.6,33.1,56.5,33.2C56.6,33.1,56.6,33.1,56.5,33.2z"></path>
        <path class="st0"
            d="M101.3,35.1c-1-1-2.2-1.6-3.6-1.6c-1.3-2.5-3.1-4.8-5-6.3l0.2-2.1c0-0.2,0.3-3.1,0.2-3.8C93,20,91.9,19,90.5,19h-0.1   c-2.8,0-7.8,2.4-9.3,3.1C79.6,22,78,21.8,77,21.8c-8.6,0-16.4,4.3-20.4,11.3c0,0,0,0.1-0.1,0.1c0,0,0,0,0,0c-0.8,1.2-2,3.5-2.4,6.8   c-0.8,0.4-1.7,0.4-2.5-0.1c-1.4-0.7-1.9-2.5-1.1-3.8c0.4-0.7,0.1-1.6-0.6-2c-0.7-0.4-1.6-0.1-2,0.6c-1.5,2.8-0.5,6.4,2.4,7.9   c0.9,0.5,1.8,0.7,2.8,0.7c0.4,0,0.7,0,1-0.1c0.2,3.4,1.2,6.7,3.2,9.7c-1.9,3.2-1.5,7.3,0.9,10.1c1.6,1.8,3.8,2.9,6.3,2.9h0.2   c2.3,0,4.5-0.9,6.1-2.5l1-1c2.9,0.6,5.8,0.7,8.7,0.3l0.6,0.6c3.3,3.2,8.5,3.4,11.9,0.5c2.6-2.3,3.5-5.9,2.4-9.1   c0.8-1,1.5-2.2,2.2-3.6c2.9-0.1,5.2-2.4,5.2-5.3v-6.6C102.8,37.5,102.3,36.2,101.3,35.1z M79.6,30.1c-0.3,0.7-1.1,1.2-1.9,0.9   c-0.1,0-4.2-1.3-7.3,1.4c-0.3,0.3-0.7,0.4-1,0.4c-0.4,0-0.8-0.2-1.1-0.5c-0.5-0.6-0.4-1.6,0.2-2.1c4.4-3.8,10-2,10.2-1.9   C79.5,28.6,79.9,29.4,79.6,30.1z M87.2,40.3c-1.2,0-2.2-1-2.2-2.2s1-2.2,2.2-2.2s2.2,1,2.2,2.2S88.4,40.3,87.2,40.3z"></path></g>
    <path class="st0"
        d="M70,1.9h0.9C71,2.5,71,3,71,3.4c0,1.1-0.2,2.1-1.1,3.4c-0.2,0.3-0.3,0.6-0.2,1c0.1,0.3,0.2,0.6,0.5,0.8  c0.2,0.1,0.5,0.2,0.7,0.2l0,0H80c0.3,0,0.6-0.1,0.9-0.4c0.2-0.2,0.4-0.6,0.4-0.9c0-0.7-0.5-1.3-1.3-1.3h-7.1c0.4-1,0.6-1.9,0.6-2.8  c0-0.5,0-1-0.1-1.5h3.4c0.7,0,1.3-0.6,1.3-1.3c0-0.7-0.6-1.3-1.3-1.3h-3.7c0-0.4-0.1-0.7-0.1-1.1C72.9-4,74.4-4.9,75.7-5  c0.7-0.1,1.4,0.1,2,0.5c0.6,0.4,0.9,1.1,1,2c0,0.3,0.2,0.6,0.4,0.9c0.3,0.2,0.6,0.3,0.9,0.3c0.7-0.1,1.2-0.7,1.1-1.4  c-0.2-1.6-0.9-3-2.1-3.8c-0.9-0.7-2.1-1-3.3-1l0,0c-0.2,0-0.3,0-0.5,0c-2.6,0.3-5.1,2.4-4.9,5.9c0,0.3,0,0.7,0.1,1H70  c-0.7,0-1.3,0.6-1.3,1.3C68.8,1.3,69.3,1.9,70,1.9z"></path></svg>

