<?xml version="1.0" encoding="utf-8"?>
<svg version="1.1" id="svg2" width="1207.2133" height="552.22668" viewBox="0 0 512 512" xmlns="http://www.w3.org/2000/svg">
  <g id="g10" transform="matrix(0.430488, 0, 0, -0.430488, 61.116806, 345.147614)" style="">
    <g id="g12" transform="scale(0.1)">
      <path d="M 0,881.781 937.344,2339.91 h -826.25 c -6.93,41.65 -10.391,87.89 -10.391,138.83 0,48.58 3.461,93.76 10.391,135.42 H 1447.67 l 17.36,-45.18 -944.276,-1461.56 h 885.256 c 6.94,-46.29 10.43,-93.69 10.43,-142.279 0,-46.371 -3.49,-90.289 -10.43,-131.961 L 17.3633,833.18 0,881.781" style="fill:#f14525;fill-opacity:1;fill-rule:nonzero;stroke:none" id="path14"/>
      <path d="m 2704.38,1669.87 c -34.73,4.6 -78.7,9.2 -131.92,13.86 -53.27,4.6 -98.41,6.93 -135.39,6.93 -143.54,0 -252.89,-26.58 -328.06,-79.81 -75.26,-53.3 -112.83,-134.27 -112.83,-243.01 0,-69.47 12.69,-123.86 38.19,-163.16 25.43,-39.43 57.28,-69.46 95.47,-90.28 38.19,-20.83 80.37,-33.57 126.7,-38.21 46.26,-4.63 90.28,-6.93 131.93,-6.93 53.2,0 108.17,2.87 164.88,8.71 56.7,5.73 107.03,14.42 151.03,25.99 z m 0,336.74 c 0,136.54 -34.73,231.42 -104.14,284.66 -69.44,53.21 -170.12,79.83 -302.05,79.83 -81.04,0 -156.8,-6.4 -227.36,-19.08 -70.65,-12.75 -139.49,-29.49 -206.58,-50.3 -44,76.38 -65.95,167.73 -65.95,274.25 78.64,25.44 165.42,45.12 260.36,58.99 94.86,13.9 186.28,20.86 274.26,20.86 231.4,0 407.3,-52.69 527.69,-157.99 120.29,-105.34 180.51,-273.71 180.51,-505.12 V 878.32 c -81.04,-18.5 -179.37,-37.601 -295.08,-57.3 -115.77,-19.629 -233.8,-29.5 -354.11,-29.5 -113.41,0 -215.82,10.402 -307.24,31.269 -91.45,20.863 -168.97,54.363 -232.61,100.691 -63.67,46.258 -112.8,105.29 -147.52,177.02 -34.73,71.75 -52.08,158.5 -52.08,260.4 0,99.46 20.24,186.84 60.74,262.12 40.49,75.12 95.48,137.64 164.92,187.44 69.42,49.73 149.27,86.8 239.54,111.04 90.27,24.34 185.12,36.51 284.66,36.51 74.05,0 134.8,-1.77 182.27,-5.23 47.4,-3.46 87.34,-7.54 119.77,-12.17 v 66" style="fill:#f14525;fill-opacity:1;fill-rule:nonzero;stroke:none" id="path16"/>
      <path d="m 3759.72,1124.82 c 43.94,-16.2 89.1,-27.79 135.4,-34.72 46.3,-6.94 106.41,-10.4 180.54,-10.4 83.31,0 159.64,13.3 229.09,39.89 69.43,26.56 129.03,67.69 178.78,123.25 49.77,55.53 89.06,125.53 118.03,210.06 28.92,84.45 43.42,184.5 43.42,300.29 0,185.13 -34.18,332.08 -102.41,440.89 -68.33,108.75 -180.01,163.15 -335,163.15 -57.87,0 -113.45,-10.39 -166.63,-31.24 -53.28,-20.8 -100.7,-52.06 -142.36,-93.73 -41.65,-41.65 -75.19,-94.34 -100.63,-157.97 -25.53,-63.69 -38.23,-139.46 -38.23,-227.4 z m -343.67,1489.34 c 23.09,4.59 46.86,8.06 71.15,10.41 24.33,2.26 49.15,3.46 74.65,3.46 23.12,0 47.41,-1.2 72.91,-3.46 25.44,-2.35 49.73,-5.82 72.92,-10.41 2.25,-4.69 5.19,-19.1 8.65,-43.42 3.48,-24.31 6.94,-50.34 10.43,-78.07 3.48,-27.8 6.95,-54.46 10.41,-79.85 3.46,-25.5 5.19,-41.72 5.19,-48.64 23.11,37.01 50.89,72.91 83.32,107.62 32.37,34.74 71.2,65.98 116.33,93.71 45.12,27.8 96.01,49.77 152.74,65.99 56.66,16.16 119.75,24.32 189.2,24.32 104.12,0 200.75,-17.39 289.88,-52.12 89.08,-34.72 165.4,-88.48 229.08,-161.38 63.63,-72.92 113.39,-165.52 149.27,-277.74 35.9,-112.31 53.83,-244.77 53.83,-397.51 0,-305.52 -82.79,-544.53 -248.22,-716.91 -165.51,-172.441 -399.81,-258.64 -702.98,-258.64 -50.94,0 -102.98,3.46 -156.23,10.402 -53.27,7 -99.52,16.269 -138.86,27.797 V 13.8594 C 3731.97,9.30078 3702.45,5.83203 3671.21,3.46875 3639.97,1.19922 3611.59,0 3586.14,0 c -25.49,0 -53.79,1.19922 -85.05,3.46875 -31.24,2.36328 -59.59,5.83203 -85.04,10.39065 V 2614.16" style="fill:#f14525;fill-opacity:1;fill-rule:nonzero;stroke:none" id="path18"/>
      <path d="m 5433.04,2343.37 h -225.68 c -4.65,18.52 -8.11,39.89 -10.39,64.22 -2.35,24.27 -3.48,48.01 -3.48,71.15 0,23.1 1.13,46.89 3.48,71.2 2.28,24.27 5.74,45.66 10.39,64.22 H 5769.8 V 833.18 c -25.49,-4.598 -53.83,-8.051 -85.08,-10.391 -31.25,-2.297 -59.63,-3.457 -85.08,-3.457 -23.14,0 -50.33,1.16 -81.54,3.457 -31.25,2.34 -59.65,5.793 -85.06,10.391 v 1510.19" style="fill:#f14525;fill-opacity:1;fill-rule:nonzero;stroke:none" id="path20"/>
      <path d="m 7391.03,1895.48 c 0,64.83 -8.71,126.72 -26.03,185.79 -17.41,59 -42.9,110.47 -76.37,154.47 -33.62,43.94 -76.41,79.26 -128.5,105.87 -52.05,26.62 -114,39.95 -185.74,39.95 -141.15,0 -249.39,-42.89 -324.59,-128.48 -75.22,-85.62 -120.9,-204.81 -137.13,-357.6 z M 6509.21,1638.6 c 4.63,-194.41 54.96,-336.75 151.04,-426.98 96,-90.26 237.77,-135.43 425.25,-135.43 164.34,0 320.55,28.97 468.67,86.84 18.52,-34.74 33.56,-76.96 45.12,-126.73 11.58,-49.831 18.5,-98.96 20.86,-147.55 -76.39,-32.469 -160.33,-56.699 -251.68,-72.891 -91.48,-16.16 -192.73,-24.339 -303.77,-24.339 -162.03,0 -300.92,22.562 -416.6,67.699 -115.74,45.172 -211.23,108.793 -286.43,190.941 -75.21,82.14 -130.19,179.35 -164.92,291.64 -34.65,112.22 -52.05,235.49 -52.05,369.74 0,131.88 16.74,255.18 50.35,369.73 33.5,114.52 85.06,214.05 154.46,298.53 69.43,84.49 156.77,151.58 262.11,201.35 105.27,49.76 229.64,74.67 373.2,74.67 122.66,0 230.29,-20.86 322.87,-62.51 92.56,-41.65 170.12,-98.94 232.62,-171.86 62.46,-72.91 109.86,-159.68 142.3,-260.34 32.39,-100.69 48.65,-210.03 48.65,-328.08 0,-32.43 -1.25,-66.56 -3.53,-102.4 -2.29,-35.96 -4.65,-66.55 -6.93,-92.03 H 6509.21" style="fill:#f14525;fill-opacity:1;fill-rule:nonzero;stroke:none" id="path22"/>
      <path d="m 8109.78,2614.16 c 25.45,4.59 49.77,8.06 72.91,10.41 23.09,2.26 47.42,3.46 72.91,3.46 25.45,0 50.9,-1.2 76.37,-3.46 25.45,-2.35 48.59,-5.82 69.45,-10.41 6.95,-34.72 13.89,-80.48 20.82,-137.13 6.92,-56.75 10.43,-104.75 10.43,-144.11 48.59,78.67 112.81,146.99 192.66,204.86 79.84,57.82 182.26,86.79 307.22,86.79 18.52,0 37.62,-0.59 57.29,-1.77 19.61,-1.17 36.48,-2.91 50.35,-5.17 4.57,-20.86 8.09,-42.88 10.39,-65.97 2.31,-23.15 3.48,-47.48 3.48,-72.92 0,-27.79 -1.72,-56.76 -5.18,-86.78 -3.47,-30.07 -7.58,-59.04 -12.17,-86.77 -18.55,4.58 -37.65,6.93 -57.28,6.93 -19.69,0 -35.29,0 -46.88,0 -62.46,0 -122.09,-8.7 -178.79,-26.04 -56.73,-17.37 -107.63,-48.05 -152.75,-92 -45.12,-43.99 -81.01,-104.17 -107.58,-180.54 -26.68,-76.39 -39.96,-174.76 -39.96,-295.07 V 833.18 c -25.49,-4.598 -53.81,-8.051 -85.06,-10.391 -31.19,-2.297 -59.59,-3.457 -85.02,-3.457 -25.48,0 -53.82,1.16 -85.07,3.457 -31.25,2.34 -60.75,5.793 -88.54,10.391 v 1780.98" style="fill:#f14525;fill-opacity:1;fill-rule:nonzero;stroke:none" id="path24"/>
      <path d="m 5673.24,3565.15 c 0,-42.81 -7.83,-83.8 -22.11,-121.65 -37.83,-14.29 -78.87,-22.12 -121.7,-22.17 h -0.49 c -42.81,0.05 -83.83,7.87 -121.68,22.14 -14.28,37.84 -22.13,78.85 -22.15,121.68 v 0.51 c 0.02,42.81 7.87,83.82 22.13,121.66 37.83,14.29 78.87,22.14 121.7,22.16 h 0.49 c 42.83,-0.02 83.87,-7.87 121.7,-22.16 14.28,-37.84 22.11,-78.85 22.11,-121.66 z m 424.24,96.31 h -336.39 l 237.83,237.86 c -18.69,26.26 -39.53,50.88 -62.26,73.61 v 0.03 c -22.72,22.7 -47.33,43.52 -73.58,62.2 l -237.87,-237.87 v 336.39 c -31.13,5.23 -63.11,8 -95.72,8.02 h -0.61 c -32.63,-0.02 -64.61,-2.79 -95.74,-8.02 v -336.39 l -237.87,237.87 c -26.25,-18.7 -50.88,-39.53 -73.56,-62.25 l -0.11,-0.08 c -22.7,-22.69 -43.5,-47.28 -62.17,-73.51 l 237.87,-237.86 h -336.39 c 0,0 -8.02,-63.18 -8.02,-95.84 v -0.41 c 0,-32.66 2.77,-64.67 8.02,-95.85 H 5297.3 L 5059.43,3231.5 c 37.4,-52.49 83.34,-98.45 135.84,-135.84 l 237.87,237.87 v -336.4 c 31.11,-5.22 63.05,-7.98 95.62,-8.01 h 0.82 c 32.6,0.03 64.56,2.79 95.63,8.01 v 336.41 l 237.89,-237.88 c 26.25,18.68 50.84,39.51 73.56,62.22 l 0.05,0.05 c 22.7,22.72 43.54,47.34 62.21,73.57 l -237.87,237.86 h 336.43 c 5.21,31.11 7.96,63.04 7.98,95.63 v 0.83 c -0.02,32.59 -2.77,64.52 -7.98,95.64" style="fill:#f14525;fill-opacity:1;fill-rule:nonzero;stroke:none" id="path26"/>
    </g>
  </g>
</svg>