<?xml version="1.0" encoding="utf-8"?>
<svg version="1.1" id="katman_1" x="0px" y="0px" viewBox="0 0 500 500" style="enable-background:new 0 0 841.9 595.3;" xmlns="http://www.w3.org/2000/svg">
  <g style="" transform="matrix(0.217249, 0, 0, 0.217249, 143.580551, 182.321503)">
    <defs>
      <path id="SVGID_1_" d="M300.3,240c39.5,39.5,39.5,103.5,0,143c-39.5,39.5-103.5,39.5-143,0c-39.5-39.5-39.5-103.5,0-143 C196.8,200.5,260.8,200.5,300.3,240z M228.9,143c43.1,0,86.2,16.5,119.1,49.4c65.8,65.8,65.8,172.5,0,238.4 c-65.8,65.8-172.5,65.8-238.4,0c-65.8-65.8-65.8-172.5,0-238.4c32.9-32.9,76-49.3,119.1-49.4H228.9z M654.2,240 c39.5,39.5,39.5,103.5,0,143c-39.5,39.5-103.5,39.5-143,0c-39.5-39.5-39.5-103.5,0-143C550.7,200.5,614.7,200.5,654.2,240z M701.9,192.3c65.8,65.8,65.8,172.5,0,238.4c-65.8,65.8-172.5,65.8-238.3,0c-65.8-65.8-65.8-172.5,0-238.4 c32.9-32.9,76-49.3,119.1-49.4C625.9,143,669,159.4,701.9,192.3z M-192.6,479.2l16.9,0.8H77.1l-0.8-16.8 c-2.3-27.8-21.9-48-49.7-49.7l-16.9-0.8H-142L60.2,210.4l-0.8-16.8c-1.3-28-21.8-48.3-49.7-49.7L-7.2,143l-252.8,0l0.8,16.8 c2.2,27.4,22.1,48.1,49.7,49.7l16.9,0.8h151.7l-202.2,202.2l0.8,16.8C-240.6,457.3-220.6,477.4-192.6,479.2z M961.3,244 c5.8,9.9,7.6,21.2,8.2,33.8l0.8,16.9v118l0.8,16.8c1.7,27.6,21.9,48,49.7,49.7l16.8,0.8V294.7l0.8-16.9c0.7-12.5,2.5-24,8.3-33.9 c11.7-20,33.4-33.5,58.3-33.5c24.9,0,46.7,13.6,58.4,33.7c5.7,9.9,7.5,21.4,8.2,33.7l0.8,16.8v118l0.8,16.8 c1.7,27.7,21.9,48.1,49.7,49.7l16.8,0.8V294.8v-17c0-74.5-60.4-134.8-134.8-134.8c-40.3,0-76.4,17.7-101.1,45.6 c-24.7-28-60.9-45.6-101.1-45.6c-28,0-54,8.5-75.5,23.1c-13.1-14.6-42.5-23.1-59.3-23.1V480l16.9-0.8 c28.1-1.9,48.6-21.7,49.7-49.7l0.8-16.9v-118l0.8-16.9c0.7-12.7,2.5-23.9,8.3-33.9c11.7-20.1,33.4-33.5,58.3-33.5 C927.8,210.4,949.6,223.9,961.3,244z"/>
    </defs>
    <path d="M300.3,240c39.5,39.5,39.5,103.5,0,143c-39.5,39.5-103.5,39.5-143,0c-39.5-39.5-39.5-103.5,0-143 C196.8,200.5,260.8,200.5,300.3,240z M228.9,143c43.1,0,86.2,16.5,119.1,49.4c65.8,65.8,65.8,172.5,0,238.4 c-65.8,65.8-172.5,65.8-238.4,0c-65.8-65.8-65.8-172.5,0-238.4c32.9-32.9,76-49.3,119.1-49.4H228.9z M654.2,240 c39.5,39.5,39.5,103.5,0,143c-39.5,39.5-103.5,39.5-143,0c-39.5-39.5-39.5-103.5,0-143C550.7,200.5,614.7,200.5,654.2,240z M701.9,192.3c65.8,65.8,65.8,172.5,0,238.4c-65.8,65.8-172.5,65.8-238.3,0c-65.8-65.8-65.8-172.5,0-238.4 c32.9-32.9,76-49.3,119.1-49.4C625.9,143,669,159.4,701.9,192.3z M-192.6,479.2l16.9,0.8H77.1l-0.8-16.8 c-2.3-27.8-21.9-48-49.7-49.7l-16.9-0.8H-142L60.2,210.4l-0.8-16.8c-1.3-28-21.8-48.3-49.7-49.7L-7.2,143l-252.8,0l0.8,16.8 c2.2,27.4,22.1,48.1,49.7,49.7l16.9,0.8h151.7l-202.2,202.2l0.8,16.8C-240.6,457.3-220.6,477.4-192.6,479.2z M961.3,244 c5.8,9.9,7.6,21.2,8.2,33.8l0.8,16.9v118l0.8,16.8c1.7,27.6,21.9,48,49.7,49.7l16.8,0.8V294.7l0.8-16.9c0.7-12.5,2.5-24,8.3-33.9 c11.7-20,33.4-33.5,58.3-33.5c24.9,0,46.7,13.6,58.4,33.7c5.7,9.9,7.5,21.4,8.2,33.7l0.8,16.8v118l0.8,16.8 c1.7,27.7,21.9,48.1,49.7,49.7l16.8,0.8V294.8v-17c0-74.5-60.4-134.8-134.8-134.8c-40.3,0-76.4,17.7-101.1,45.6 c-24.7-28-60.9-45.6-101.1-45.6c-28,0-54,8.5-75.5,23.1c-13.1-14.6-42.5-23.1-59.3-23.1V480l16.9-0.8 c28.1-1.9,48.6-21.7,49.7-49.7l0.8-16.9v-118l0.8-16.9c0.7-12.7,2.5-23.9,8.3-33.9c11.7-20.1,33.4-33.5,58.3-33.5 C927.8,210.4,949.6,223.9,961.3,244z" transform="matrix(1, 0, 0, 1, 0, 0)" style="overflow: visible; fill-rule: evenodd; clip-rule: evenodd; fill: rgb(45, 140, 255);"/>
  </g>
</svg>