<svg xmlns="http://www.w3.org/2000/svg" viewBox="0 0 159.98 20.2">
    <defs>
        <style>.a{fill:#3a277b;}.b{fill:#eb5d11;}</style>
    </defs>
    <path class="a"
          d="M10.34,40.26h0a3.57,3.57,0,0,1-3.57-3.57V24.93a3.57,3.57,0,0,1,7.14,0V36.69a3.57,3.57,0,0,1-3.57,3.57"
          transform="translate(-6.77 -21.19)"/>
    <path class="a" d="M23.6,25.93a4.67,4.67,0,1,1-4.71-4.63h0a4.65,4.65,0,0,1,4.67,4.63h0"
          transform="translate(-6.77 -21.19)"/>
    <path class="b"
          d="M27.42,21.32h0A3.57,3.57,0,0,1,31,24.88h0V36.65a3.57,3.57,0,0,1-7.14,0V24.89a3.57,3.57,0,0,1,3.57-3.57"
          transform="translate(-6.77 -21.19)"/>
    <path class="b" d="M14.16,35.8a4.67,4.67,0,1,1,4.71,4.63h-.05a4.65,4.65,0,0,1-4.66-4.63"
          transform="translate(-6.77 -21.19)"/>
    <path class="a"
          d="M46,26.93a1.21,1.21,0,0,1-1.21,1.21,2.11,2.11,0,0,0-1.37.43,3.45,3.45,0,0,0-1.06,1.09,7.23,7.23,0,0,0-.94,1.91v4.31a1.24,1.24,0,0,1-1.25,1.21A1.22,1.22,0,0,1,39,35.88v-9a1.2,1.2,0,0,1,1.22-1.18h0a1.22,1.22,0,0,1,1.25,1.18V27a3,3,0,0,1,.49-.45,5,5,0,0,1,2.88-.89A1.18,1.18,0,0,1,46,26.9v0"
          transform="translate(-6.77 -21.19)"/>
    <path class="a"
          d="M55.72,31.43a3.31,3.31,0,0,0-.89-2.34,2.84,2.84,0,0,0-2.13-.93,2.79,2.79,0,0,0-2.13.93,3.33,3.33,0,0,0-.87,2.34,3.37,3.37,0,0,0,.87,2.34,2.91,2.91,0,0,0,2.13.89,3,3,0,0,0,2.13-.89,3.44,3.44,0,0,0,.89-2.34m2.43,0v4.45a1.22,1.22,0,0,1-1.22,1.21,1.26,1.26,0,0,1-1.19-1,5.22,5.22,0,0,1-6.89-.66,5.83,5.83,0,0,1-1.56-4,5.72,5.72,0,0,1,1.56-4,5.21,5.21,0,0,1,6.93-.7,1.26,1.26,0,0,1,1.19-1A1.23,1.23,0,0,1,58.15,27Z"
          transform="translate(-6.77 -21.19)"/>
    <path class="a"
          d="M65.12,27v8.86a1.21,1.21,0,0,1-1.19,1.23h0a1.23,1.23,0,0,1-1.24-1.22h0V27a1.23,1.23,0,0,1,1.19-1.25h0a1.2,1.2,0,0,1,1.23,1.17V27m0-4.11a1.23,1.23,0,0,1-1.21,1.25h0a1.25,1.25,0,0,1-1.24-1.25v-.48a1.22,1.22,0,0,1,1.22-1.22h0a1.2,1.2,0,0,1,1.23,1.17v.53Z"
          transform="translate(-6.77 -21.19)"/>
    <path class="a"
          d="M68.51,33.84a1.2,1.2,0,0,1,1.68-.21l0,0a4.22,4.22,0,0,0,2.51,1,3.06,3.06,0,0,0,1.56-.44.93.93,0,0,0,.41-.68.29.29,0,0,0-.07-.22c0-.07-.11-.16-.3-.28a5.45,5.45,0,0,0-1.83-.63h0a9.2,9.2,0,0,1-2-.59,3.9,3.9,0,0,1-1.58-1.32,2.77,2.77,0,0,1-.39-1.43,3.2,3.2,0,0,1,1.35-2.5,5,5,0,0,1,2.82-.84A5.91,5.91,0,0,1,76.13,27a1.25,1.25,0,0,1,.37,1.68,1.23,1.23,0,0,1-1.7.32,3.93,3.93,0,0,0-2.1-.84,2.35,2.35,0,0,0-1.38.41.7.7,0,0,0-.36.52.28.28,0,0,0,0,.18.58.58,0,0,0,.26.23,4.49,4.49,0,0,0,1.67.54h0a8.33,8.33,0,0,1,2.13.65A3.56,3.56,0,0,1,76.72,32a3,3,0,0,1,.44,1.5,3.27,3.27,0,0,1-1.44,2.64,5.25,5.25,0,0,1-3,.91,6.75,6.75,0,0,1-4.07-1.57,1.21,1.21,0,0,1-.16-1.68"
          transform="translate(-6.77 -21.19)"/>
    <path class="a"
          d="M82,30.3h6.47a3.71,3.71,0,0,0-3.38-2.41A3.18,3.18,0,0,0,82,30.3m-2.5,1.11a5.64,5.64,0,0,1,5.59-5.68A5.45,5.45,0,0,1,90.61,31v.11a.74.74,0,0,1,0,.21,1.11,1.11,0,0,1-1.19.91h-7.3a3,3,0,0,0,.78,1.5,3.58,3.58,0,0,0,2.2,1,3.78,3.78,0,0,0,2.38-.57,1.3,1.3,0,0,1,1.71-.07,1,1,0,0,1,.07,1.41l-.07.07a5.81,5.81,0,0,1-4.09,1.5,5.67,5.67,0,0,1-5.59-5.68"
          transform="translate(-6.77 -21.19)"/>
    <path class="a" d="M95.46,33.86a1.7,1.7,0,1,1,.26,3.39h-.26a1.7,1.7,0,0,1,0-3.39"
          transform="translate(-6.77 -21.19)"/>
    <path class="a"
          d="M109.29,21.4a.62.62,0,0,1,.18.46v14.6a.65.65,0,0,1-.18.46.66.66,0,0,1-.47.18.63.63,0,0,1-.65-.64V35a4.6,4.6,0,0,1-1.61,1.68,4.33,4.33,0,0,1-2.36.68,4.66,4.66,0,0,1-2.59-.74,5,5,0,0,1-1.82-2,6.74,6.74,0,0,1,0-5.86,5.18,5.18,0,0,1,1.82-2.05,4.69,4.69,0,0,1,2.56-.74,4.61,4.61,0,0,1,2.36.63,4.33,4.33,0,0,1,1.64,1.65V21.86a.65.65,0,0,1,.65-.65A.63.63,0,0,1,109.29,21.4Zm-2.94,14.13a3.91,3.91,0,0,0,1.4-1.62,5.21,5.21,0,0,0,.51-2.33,5.14,5.14,0,0,0-.51-2.3,4.17,4.17,0,0,0-1.4-1.62,3.77,3.77,0,0,0-4,0,4.17,4.17,0,0,0-1.4,1.62,5.49,5.49,0,0,0,0,4.62,4,4,0,0,0,1.4,1.62,3.66,3.66,0,0,0,2,.59A3.61,3.61,0,0,0,106.35,35.53Z"
          transform="translate(-6.77 -21.19)"/>
    <path class="a"
          d="M114.38,24.29a.72.72,0,0,1-.24-.59v-.21a.7.7,0,0,1,.25-.59,1,1,0,0,1,.68-.21c.58,0,.86.27.86.8v.21a.74.74,0,0,1-.22.59,1,1,0,0,1-.66.21A1,1,0,0,1,114.38,24.29Zm1.13,12.63a.63.63,0,0,1-.46.18.66.66,0,0,1-.47-.18.65.65,0,0,1-.18-.46V26.58a.62.62,0,0,1,.18-.46.66.66,0,0,1,.47-.18.63.63,0,0,1,.46.18.63.63,0,0,1,.19.46v9.88A.66.66,0,0,1,115.51,36.92Z"
          transform="translate(-6.77 -21.19)"/>
    <path class="a"
          d="M130.45,26.31a.65.65,0,0,1,.18.48v9.3a5.55,5.55,0,0,1-.7,2.87A4.71,4.71,0,0,1,128,40.77a6.17,6.17,0,0,1-2.8.62,6.89,6.89,0,0,1-1.59-.19,6.45,6.45,0,0,1-1.43-.49c-.4-.21-.62-.41-.68-.63a.46.46,0,0,1-.15-.34.38.38,0,0,1,.19-.34.32.32,0,0,1,.22-.07,1.71,1.71,0,0,1,.5.15l.45.19a6.88,6.88,0,0,0,2.51.52,4.08,4.08,0,0,0,3-1.08,4,4,0,0,0,1.09-2.93V34.84a3.94,3.94,0,0,1-1.7,1.82,4.91,4.91,0,0,1-2.45.65,5,5,0,0,1-2.69-.74,5.13,5.13,0,0,1-1.89-2,6.57,6.57,0,0,1,0-5.86,5.27,5.27,0,0,1,1.89-2.05,5,5,0,0,1,2.67-.74,4.81,4.81,0,0,1,2.5.68,4.49,4.49,0,0,1,1.67,1.62V26.79a.68.68,0,0,1,.19-.47.6.6,0,0,1,.46-.19A.64.64,0,0,1,130.45,26.31Zm-3,9.23a3.83,3.83,0,0,0,1.47-1.61,5.45,5.45,0,0,0,0-4.69,3.86,3.86,0,0,0-1.47-1.6,4,4,0,0,0-2.13-.57,3.92,3.92,0,0,0-2.11.59,4.26,4.26,0,0,0-1.47,1.62,5.39,5.39,0,0,0,0,4.62,4.12,4.12,0,0,0,1.47,1.62,3.92,3.92,0,0,0,2.11.59A4,4,0,0,0,127.42,35.54Z"
          transform="translate(-6.77 -21.19)"/>
    <path class="a"
          d="M135.56,24.29a.72.72,0,0,1-.24-.59v-.21a.73.73,0,0,1,.25-.59,1,1,0,0,1,.68-.21c.58,0,.87.27.87.8v.21a.75.75,0,0,1-.23.59.93.93,0,0,1-.66.21A1,1,0,0,1,135.56,24.29Zm1.14,12.63a.66.66,0,0,1-.47.18.63.63,0,0,1-.65-.64V26.58a.59.59,0,0,1,.19-.46.62.62,0,0,1,.46-.18.66.66,0,0,1,.47.18.62.62,0,0,1,.18.46v9.88A.65.65,0,0,1,136.7,36.92Z"
          transform="translate(-6.77 -21.19)"/>
    <path class="a"
          d="M160.17,26.32a.67.67,0,0,1,.18.47v9.67a.65.65,0,0,1-.18.46.63.63,0,0,1-.46.18.64.64,0,0,1-.47-.18.65.65,0,0,1-.18-.46V35a4.54,4.54,0,0,1-1.63,1.63,4.42,4.42,0,0,1-2.35.66,4.71,4.71,0,0,1-2.61-.75,5.18,5.18,0,0,1-1.81-2.06,6.42,6.42,0,0,1-.66-2.94,6.26,6.26,0,0,1,.67-2.93,5.08,5.08,0,0,1,1.83-2,4.66,4.66,0,0,1,2.56-.73,4.71,4.71,0,0,1,2.37.62,4.12,4.12,0,0,1,1.63,1.63V26.79a.67.67,0,0,1,.18-.47.61.61,0,0,1,.47-.19A.6.6,0,0,1,160.17,26.32Zm-2.94,9.2a3.92,3.92,0,0,0,1.4-1.63,5.21,5.21,0,0,0,.51-2.33,5.09,5.09,0,0,0-.51-2.28,4,4,0,0,0-1.4-1.62,3.62,3.62,0,0,0-2-.59,3.7,3.7,0,0,0-2,.58,4,4,0,0,0-1.41,1.6,5.09,5.09,0,0,0-.51,2.31,5.35,5.35,0,0,0,.5,2.33,3.92,3.92,0,0,0,1.4,1.63,3.79,3.79,0,0,0,4.06,0Z"
          transform="translate(-6.77 -21.19)"/>
    <path class="a"
          d="M166.57,36.92a.64.64,0,0,1-.47.18.63.63,0,0,1-.46-.18.66.66,0,0,1-.19-.46V21.86a.63.63,0,0,1,.19-.46.6.6,0,0,1,.46-.19.61.61,0,0,1,.47.19.62.62,0,0,1,.18.46v14.6A.65.65,0,0,1,166.57,36.92Z"
          transform="translate(-6.77 -21.19)"/>
    <path class="a"
          d="M144,29.65V27.37h2.16a.57.57,0,0,0,.43-.16.52.52,0,0,0,.18-.42.6.6,0,0,0-.19-.43.59.59,0,0,0-.42-.19H144V22.39a.63.63,0,0,0-.18-.46.64.64,0,0,0-.47-.18.63.63,0,0,0-.46.18.64.64,0,0,0-.19.46v1.4h0v2.38h-1.57a.64.64,0,0,0-.45.17.58.58,0,0,0-.18.43.57.57,0,0,0,.18.43.6.6,0,0,0,.45.17h1.57v7.26a2.73,2.73,0,0,0,.43,1.72A1.61,1.61,0,0,0,144,37a4.61,4.61,0,0,0,1,.11,1.56,1.56,0,0,0,.82-.21.58.58,0,0,0,.35-.5.55.55,0,0,0-.15-.38.44.44,0,0,0-.33-.16,1.11,1.11,0,0,0-.3.06,1.56,1.56,0,0,1-.33.05,1.14,1.14,0,0,1-.8-.29,1.52,1.52,0,0,1-.3-1.1V29.65Z"
          transform="translate(-6.77 -21.19)"/>
</svg>